<?xml version="1.0" standalone="no"?>
<!DOCTYPE svg PUBLIC "-//W3C//DTD SVG 1.1//EN" "http://www.w3.org/Graphics/SVG/1.1/DTD/svg11.dtd" >
<svg xmlns="http://www.w3.org/2000/svg" xmlns:xlink="http://www.w3.org/1999/xlink" version="1.1">
<metadata></metadata>
<defs>
<font id="boxingregular" horiz-adv-x="444" >
<font-face units-per-em="2048" ascent="1485" descent="-563" />
<missing-glyph horiz-adv-x="505" />
<glyph horiz-adv-x="0" />
<glyph unicode="&#xd;" horiz-adv-x="0" />
<glyph horiz-adv-x="0" />
<glyph horiz-adv-x="0" />
<glyph unicode=" "  horiz-adv-x="505" />
<glyph unicode="&#x09;" horiz-adv-x="505" />
<glyph unicode="&#xa0;" horiz-adv-x="505" />
<glyph unicode="!" d="M-2 -115h39h219h37v-39v-208v-37h-37h-219h-39v37v208v39zM0 1608v39h39h219h37v-39l-21 -1479v-39h5h-220h-39v39z" />
<glyph unicode="&#x22;" horiz-adv-x="614" d="M-6 1604v43h237v-45l-34 -392h-170zM283 1575v72h237v-45l-35 -392h-170l-32 387v-22z" />
<glyph unicode="#" horiz-adv-x="1079" d="M0 166l18 227h117l45 537h-119l21 227h119l39 471h215l-41 -471h155l41 471h213l-39 -471h121l-18 -227h-123l-45 -537h123l-21 -227h-121l-49 -586h-215l49 586h-153l-51 -586h-213l49 586h-117zM350 393h156l45 537h-156z" />
<glyph unicode="$" horiz-adv-x="878" d="M29 -55v219v39h2h37h219h37v-37v-219q0 -18 11 -34.5t58 -18.5q117 2 117 53v172v22v4q0 31 -10.5 57.5t-20.5 43.5q-57 94 -124.5 187t-141.5 188q-184 227 -184 372v219q0 104 19.5 178t53 123.5t76.5 77t90 39.5v135h295v-135q47 -12 90 -39.5t77 -77t53.5 -123 t19.5 -178.5v-131v-37v-2h-39h-217h-37v37v203q0 4 -2 15.5t-12.5 22.5t-31 19.5t-58.5 8.5q-29 0 -44.5 -7.5t-24.5 -17.5t-11 -21.5t-2 -19.5v-178q0 -4 5 -38t38 -87q55 -90 118.5 -178t135.5 -176q182 -227 182 -373v-307q0 -283 -240 -332v-113h-295v113 q-117 25 -178 107.5t-61 224.5z" />
<glyph unicode="%" horiz-adv-x="1320" d="M106 1188q0 92 61.5 153.5t151.5 61.5q92 0 154 -61.5t62 -153.5t-61.5 -152.5t-154.5 -60.5q-90 0 -151.5 60.5t-61.5 152.5zM217 -225l25 57l594 1509l22 48h31h139h57l-18 -48l-594 -1509l-22 -57h-33h-139h-62zM240 1188q0 -35 22 -57.5t57 -22.5t58.5 22.5 t23.5 57.5t-23.5 57.5t-58.5 22.5t-57 -22.5t-22 -57.5zM791 -27q0 90 61.5 151.5t153.5 61.5t153.5 -61.5t61.5 -151.5q0 -92 -61.5 -153.5t-153.5 -61.5t-153.5 61.5t-61.5 153.5zM926 -27q0 -35 22.5 -58.5t57.5 -23.5t57 24t22 58q0 35 -22.5 57.5t-56.5 22.5 q-35 0 -57.5 -22.5t-22.5 -57.5z" />
<glyph unicode="&#x26;" horiz-adv-x="1972" d="M47 -8v-23h23h135h24v23v635h21h74h20v-635v-23h25h135h22v23v1016q0 82 -19.5 135t-50 81.5t-68.5 40t-75 11.5h-53q-37 0 -75 -11.5t-68.5 -40t-50 -81.5t-19.5 -135v-1016zM66 -170h1749v-186h-1749v186zM66 1403v186h1749v-186h-1749zM229 811v250q0 18 6.5 24.5 t24.5 6.5h53q18 0 24.5 -6.5t6.5 -24.5v-250h-51h-10h-54zM653 -8v-23h23h139h25v23v635l145 -639l6 -19h19h166h24v23v1249v23h-24h-140h-22v-23v-692l-148 696l-4 19h-18h-168h-23v-23v-1249zM1315 -8v-23h22h279q33 0 66.5 8.5t61.5 33t45 66t17 109.5v861 q0 68 -17 109.5t-45 66t-61.5 33t-66.5 8.5h-279h-22v-23v-1249zM1501 156v921h74q35 0 40 -10t5 -20v-861q0 -10 -5 -21t-40 -11z" />
<glyph unicode="'" horiz-adv-x="290" d="M-6 1604v43h237v-45l-34 -392h-170z" />
<glyph unicode="(" horiz-adv-x="438" d="M0 -371v1970v39h39h258v-153h-104v-1741l106 -2v-152h-260h-39v39z" />
<glyph unicode=")" horiz-adv-x="438" d="M0 -258l106 2v1741h-104v153h258h39v-39v-1970v-39h-39h-260v152z" />
<glyph unicode="*" horiz-adv-x="647" d="M96 1270l10 10l130 129l-130 129l-10 12l10 11l60 61l12 10l10 -10l129 -131l129 131l11 10l10 -10l61 -61l11 -11l-11 -12l-129 -129l129 -129l11 -10l-11 -10l-61 -62l-10 -10l-11 10l-129 129l-129 -129l-10 -10l-12 10l-60 62z" />
<glyph unicode="+" horiz-adv-x="1097" d="M31 397v31v172v31h30h365v364v31h31h172h30v-31v-364h365h31v-31v-172v-31h-31h-365v-366v-29h-30h-172h-31v29v366h-365h-30z" />
<glyph unicode="," d="M2 -127h309v-256l-129 -297h-121l78 268h-137v285z" />
<glyph unicode="-" horiz-adv-x="876" d="M31 397v31v172v31h30h365h31h172h30h119h31v-31v-172v-31h-31h-119h-30h-172h-31h-365h-30z" />
<glyph unicode="." d="M0 -125h39h219h37v-39v-207v-39h-37h-219h-39v39v207v39z" />
<glyph unicode="/" horiz-adv-x="772" d="M98 -418l11 47l327 1970l4 39h39h117h39l-6 -39l-328 -1970l-8 -47h-39h-117h-39z" />
<glyph unicode="0" horiz-adv-x="776" d="M-4 6v1196q0 135 31.5 220t83 133.5t113 65.5t120.5 17h88q59 0 121.5 -17t113 -65.5t82 -133.5t31.5 -220v-1196q0 -135 -31.5 -220t-82 -133t-112.5 -65.5t-122 -17.5h-88q-59 0 -120.5 17.5t-113 65.5t-83 133t-31.5 220zM295 -82q0 -29 10 -39t39 -10h88q29 0 40 10 t11 39v1372q0 29 -11 39t-40 10h-88q-29 0 -39 -10t-10 -39v-1372z" />
<glyph unicode="1" horiz-adv-x="411" d="M0 1333v37v219v39h10h107h37h219h28h11v-39v-219v-37v-1714v-39h-39h-219h-37v39v1714h-107h-10z" />
<glyph unicode="2" horiz-adv-x="776" d="M0 -125v356q0 145 184 375q72 88 135.5 176t118.5 181q33 53 38 85.5t5 36.5v181q0 8 -2 19t-11 21.5t-25.5 17.5t-43.5 7q-39 0 -59.5 -8t-30.5 -19.5t-12 -22.5t-2 -15v-240h-293h-2v170q0 133 31.5 217t82 132t111 65.5t119.5 17.5h88q59 0 120.5 -17.5t111 -65.5 t81 -132t31.5 -217v-219q0 -143 -182 -375q-76 -94 -143.5 -187.5t-124.5 -189.5q-10 -16 -20.5 -42.5t-10.5 -55.5v-201q0 -39 55 -51h426v-295h-344h-88h-344v285v10z" />
<glyph unicode="3" horiz-adv-x="757" d="M0 -125h317h97q29 0 39 10.5t10 38.5v654q0 29 -34 39t-60 10h-52h-163v280h141h70q35 4 66.5 19.5t31.5 44.5v313q0 29 -34 39t-60 10h-52h-22h-295v256v39h39h418q51 0 105 -13t97 -51t71 -105.5t28 -174.5v-313q0 -51 -21.5 -106.5t-85.5 -90.5q63 -35 85 -90t22 -106 v-654q0 -106 -28 -173.5t-71 -105.5t-97 -51.5t-105 -13.5h-418h-39v39v256z" />
<glyph unicode="4" horiz-adv-x="776" d="M0 612v37v940v37h39h217h39v-37v-682h186v682v37h37l219 2h39v-39v-1970v-39h-39l-219 2h-37v37v993h-186h-39h-217h-39z" />
<glyph unicode="5" horiz-adv-x="825" d="M0 627v266v735h756v-295h-457v-426h109q70 0 122 -15t92 -38t66.5 -52.5t42.5 -60.5q39 -72 45 -163v-654q0 -98 -20.5 -164.5t-56 -105.5t-85 -55.5t-108.5 -16.5l-162 -2h-326v297h400v2q41 4 52 26.5t11 37.5v399v236q0 29 -33.5 39t-60.5 10h-387z" />
<glyph unicode="6" horiz-adv-x="776" d="M0 -8v31v139v465v221v485v10v285h295v-295v-426l31 -2q4 0 -1.5 1t-0.5 1h190q90 0 141.5 -46t77.5 -101q31 -66 41 -148q2 -10 2 -18v-16v-127v-459v-88q0 -106 -27.5 -174t-70.5 -106t-96.5 -51t-104.5 -13h-45h-18h-70q-59 0 -119.5 17t-111 64.5t-82 132.5t-31.5 218 zM295 43v-121q0 -4 2 -15t12 -22.5t30.5 -19.5t59.5 -8q27 0 43.5 7t25.5 17t11 21.5t2 19.5v94v326v4v217q0 4 -2 14.5t-11 21.5t-30.5 19.5t-60.5 8.5q-53 0 -67.5 -24.5t-14.5 -39.5v-211v-209v-100z" />
<glyph unicode="7" horiz-adv-x="823" d="M0 -420l512 1753h-512v295h823v-307l-2 -6l-522 -1735h-285h-14z" />
<glyph unicode="8" horiz-adv-x="786" d="M0 2v301v176q0 74 33 146.5t98 117.5q-41 16 -65.5 40t-40 51.5t-20.5 56.5t-5 55v361q0 106 29.5 172.5t77 104.5t103.5 51.5t112 13.5h141q55 0 112.5 -13.5t104.5 -51.5t76.5 -104.5t29.5 -172.5v-361q0 -53 -26.5 -111.5t-104.5 -91.5q66 -45 98.5 -117.5 t32.5 -146.5v-176v-227v-154q0 -106 -29.5 -172.5t-76.5 -104.5t-104.5 -51.5t-112.5 -13.5h-141q-55 0 -111.5 13.5t-104 51.5t-77 104.5t-29.5 172.5v80zM315 -78q0 -6 1 -15t8.5 -16.5t22.5 -12.5t44 -5h4q55 0 64.5 17.5t9.5 31.5v170v469q0 29 -11.5 39t-41.5 10h-47 q-29 0 -41.5 -10t-12.5 -39v-469v-170zM315 934q0 -8 1 -16.5t8.5 -14.5t22.5 -10t44 -4h2h2q55 0 64.5 14.5t9.5 30.5v373q0 14 -9 31.5t-65 17.5h-4q-29 0 -44 -5t-22.5 -12.5t-8.5 -16.5t-1 -15v-373z" />
<glyph unicode="9" horiz-adv-x="776" d="M0 780v17v127v293v88q0 106 27.5 173.5t71.5 105.5t97.5 51.5t104.5 13.5h43h21h67q59 0 120.5 -17.5t111 -65.5t81 -132t31.5 -217v-31v-285v-151v-222v-653v-10v-285h-295v295v594h-28h-189q-90 0 -142 46t-79 101q-31 66 -41 148q-2 8 -2 16zM295 813q0 -4 2 -15.5 t12 -22.5t30.5 -19t59.5 -8q27 0 43.5 7t25.5 17t11 21.5t2 19.5v354v-247v245v121q0 4 -2 15.5t-12 22.5t-30.5 19.5t-59.5 8.5q-29 0 -44.5 -7.5t-24.5 -17.5t-11 -21.5t-2 -19.5v-94v-12v-6v-361z" />
<glyph unicode=":" d="M0 -125h39h219h37v-39v-207v-39h-37h-219h-39v39v207v39zM0 457v37v208v39h39h219h37v-39v-208v-37h-37h-219h-39z" />
<glyph unicode=";" d="M0 455v39v208v37h39h219h53v-37v-208v-39h-53h-219h-39zM2 -127v-285h137l-78 -268h121l129 297v256h-309z" />
<glyph unicode="&#x3c;" horiz-adv-x="690" d="M72 498l526 356l-10 -743z" />
<glyph unicode="=" horiz-adv-x="1298" d="M215 160v30v172v31h31h364h31h172h31h364h31v-31v-172v-30h-31h-364h-31h-172h-31h-364h-31zM215 602v31v172v31h31h364h31h172h31h364h31v-31v-172v-31h-31h-364h-31h-172h-31h-364h-31z" />
<glyph unicode="&#x3e;" horiz-adv-x="690" d="M72 854l526 -356l-516 -387z" />
<glyph unicode="?" horiz-adv-x="927" d="M47 1063v100q0 248 94.5 376t321.5 128q115 0 191.5 -32.5t123.5 -96t67.5 -158t20.5 -217.5q0 -82 -11 -156.5t-37.5 -147.5t-67.5 -146.5t-99 -151.5q-47 -61 -68.5 -113.5t-28.5 -100.5t-6 -94t1 -97v-142l-275 -4v158q0 61 -1 115.5t7.5 108.5t30 109.5t66.5 121.5 q51 74 87 142.5t58.5 135t31.5 136t9 147.5q0 53 -1 92t-10 65.5t-31.5 39t-65.5 12.5t-68 -12.5t-37 -39t-15 -65.5t-3 -92v-121h-285zM266 -131h291v-291h-291v291z" />
<glyph unicode="@" horiz-adv-x="1458" d="M25 432q2 18 12 29.5t23.5 22t24.5 22.5t15 31q6 27 3 55.5t-3 54t7.5 48t31.5 38.5q4 41 21.5 77t39 73t41 75.5t25.5 88.5q4 6 11.5 11t12.5 11t6 14.5t-5 18.5q-23 -25 -42.5 -17.5t-28.5 29t-4 49t30 45.5q-10 25 -4 41.5t18 28.5t26.5 23.5t20.5 27.5 q16 4 26.5 12.5t33.5 4.5q-4 31 4 52t24.5 33.5t39 12.5t44.5 -12q12 -14 14.5 -31t1.5 -33t-1 -31.5t10 -27.5q14 12 32.5 14t37 2h35t30.5 10q2 14 12.5 30.5t24.5 27t29.5 13.5t29.5 -5q20 47 72 69q8 2 12 0t7 -5t6.5 -6t9.5 -3q0 6 -3 8t-6.5 5.5t-5.5 6.5t0 11 q18 35 55.5 46t68 0t46 -45t-9.5 -87q14 -23 35.5 -36t40.5 -30q12 -29 15 -56.5t1 -57t-6 -60.5t-4 -63q23 -25 32 -71t11 -99.5t-1 -105.5t-7 -89q-12 -10 -28.5 -16t-41.5 -2q-2 -10 4 -19.5t15.5 -17.5t19.5 -17.5t17 -21.5q4 -16 4 -35.5t6 -40.5q10 -39 31.5 -65.5 t23.5 -46.5q2 -18 -6 -39t-23.5 -35.5t-36 -20.5t-45.5 4q18 45 15.5 88.5t-17 81t-37 70.5t-47.5 57q6 -27 14.5 -53t15.5 -55t10 -57.5t-1 -59.5q-18 6 -45.5 2t-53.5 -7t-45 -1t-22 20q0 8 10.5 14.5t24 10.5t28.5 7t24 9q8 37 -0.5 66t-21.5 55.5t-26.5 52t-17.5 58.5 q-2 10 -14.5 10t-20.5 4q4 57 17.5 106.5t25.5 98.5t20.5 101.5t6.5 117.5q-31 -31 -57.5 -20.5t-48 38t-41 62.5t-35.5 53q-37 -10 -74 -21.5t-72 -25.5q-14 -47 -35.5 -88t-25.5 -98q-4 -12 6 -10t14 -5q4 -78 27.5 -142t58.5 -120q2 -14 -8 -13t-12 -7q23 -51 35 -114.5 t16 -133.5q10 -16 25.5 -28.5t32 -22.5t30.5 -23.5t22 -31.5q-43 -10 -85 1t-76 15q12 39 8 66.5t-14.5 52t-21.5 50t-11 62.5q-27 20 -30 46t-17 51q-10 16 -27.5 25t-35 17.5t-32 19.5t-20.5 34q-57 -14 -100 -50t-72 -85t-42 -108.5t-9 -121.5q-18 -4 -33.5 -16 t-31 -23.5t-33 -16.5t-37.5 7zM31 -186v-11h8h100q23 0 46.5 15.5t23.5 66.5v154q0 12 -4 25.5t-21 21.5q16 10 20.5 22.5t4.5 24.5v74q0 51 -23.5 66.5t-46.5 15.5h-100h-8v-10v-465zM35 -276h16l8 -76l7 76h14l8 -76l8 76h13l-11 -97h-20l-4 51l-6 -51h-21zM100 51h17 q6 0 14 -2t8 -10v-154q0 -12 -12 -12h-27v178zM100 117v102h17q6 0 14 -3t8 -9v-74q0 -6 -7 -10t-15 -4zM117 -276h14l8 -76l8 76h15l6 -76l8 76h14l-12 -97h-18l-6 51l-7 -51h-20zM197 -276h14l8 -76l8 76h15l8 -76l6 76h14l-10 -97h-20l-7 51l-6 -51h-20zM231 -94 q0 -63 26 -83t54 -20h23q29 0 54.5 20t25.5 83v280q0 63 -26 83t-54 20h-23q-29 0 -54.5 -19.5t-25.5 -83.5v-280zM274 -358h15v-15h-15v15zM301 -115v322q0 12 10 12h23q10 0 10 -12v-322q0 -12 -10 -12h-23q-10 0 -10 12zM303 -276h23q22 0 22 -23v-2q0 -14 -8 -21 q10 -6 10 -20v-8q0 -23 -22 -23h-25v97zM319 -291v-24h7q8 0 8 10v6q0 8 -8 8h-7zM319 -330v-28h9q8 0 8 8v8q0 12 -10 12h-7zM362 -276h41v-15h-26v-26h20v-15h-20v-26h26v-15h-41v97zM414 289l4 -13l69 -225l-69 -235l-2 -13h10h53h6l2 9l37 137l29 -137l2 -9h6h51h13 l-2 13l-62 235l64 225l2 13h-11h-55h-6l-2 -8l-29 -125l-35 125l-2 8h-6h-55h-12zM416 -358h14v-15h-14v15zM444 -276h19l16 -58v58h13v-97h-15l-18 70v-70h-15v97zM506 -276h41v-15h-27v-26h23v-15h-23v-26h27v-15h-41v97zM555 -276h47v-15h-16v-82h-15v82h-16v15z M606 -373l39 97h12l-36 -97h-15zM649 -186v-11h8h52h10v11v465v10h-10h-52h-8v-10v-465zM662 -276h47v-15h-15v-82h-16v82h-16v15zM709 -373l16 97h23l14 -97h-14l-3 17h-20l-2 -17h-14zM727 -342h14l-6 49zM752 -186v-11h10h51h8v11v235l56 -237l2 -9h6h63h8v11v465v10h-8 h-53h-8v-10v-259l-56 261l-2 8h-6h-61h-10v-10v-465zM762 1335q16 -31 30.5 -65.5t49.5 -46.5q18 12 26.5 34.5t8.5 46t-8.5 45t-22.5 31.5q-10 -23 -39 -26t-45 -19zM772 -276h19l16 -58v58h12v-97h-14l-19 70v-70h-14v97zM834 -299q0 25 22 25q23 0 23 -25v-51 q0 -25 -23 -25t-22 25v51zM848 -299v-51q0 -10 8 -10t8 10v51q0 10 -8 10t-8 -10zM887 -276h16l10 -78l13 78h14l-16 -97h-23zM950 -276h41v-15h-26v-26h20v-15h-20v-26h26v-15h-41v97zM981 -94q0 -61 25.5 -81t54.5 -22h2h8h25h8h41h12h8v11v295v10h-8h-74h-10v-10v-52v-10 h10h13v-162q0 -12 -13 -12h-20q-10 0 -10 12v322q0 12 10 12h20q12 0 13 -12v-62h8h53h8v41q0 63 -26.5 83t-55.5 20h-20q-29 0 -55.5 -19.5t-26.5 -83.5v-280zM1004 -276h22q23 0 23 -23v-6q0 -14 -11 -21q10 -6 11 -20v-14q0 -8 2 -13h-17v13v14q0 12 -10 12h-6v-39h-14 v97zM1018 -291v-28h6q8 0 8 10v10q0 8 -6 8h-8zM1061 -299q0 25 22 25q23 0 23 -25v-51q0 -25 -23 -25t-22 25v51zM1075 -299v-51q0 -10 8 -10t9 10v51q0 10 -9 10q-8 0 -8 -10zM1118 -276h19l16 -58v58h14v-97h-16l-18 70v-70h-15v97z" />
<glyph unicode="A" horiz-adv-x="886" d="M0 8h287v-381v-37h-37h-213h-37v37v381zM0 14v47h287v-47h-287zM0 68v47h287v-47h-287zM0 121v47h287v-47h-287zM0 174v47h287v-47h-287zM0 227v47h287v-47h-287zM0 281v45h287v-45h-287zM0 336v43h287v-43h-287zM0 389v43h287v-43h-287zM0 442v43h287v-43h-287zM0 496 v43h287v-43h-287zM0 549v41h287v-41h-287zM0 602v39h754v-39h-285v21h-35h-115h-32v-21h-287zM0 659v35h754v-35h-754zM0 713v35h754v-35h-754zM0 766v35h754v-35h-754zM0 817v37h754v-37h-754zM0 870v33h754v-33h-754zM0 928v28h287v-28h-287zM0 981v29h287v-29h-287z M0 1034v29h287v-29h-287zM0 1087v29h287v-29h-287zM0 1141v28h287v-28h-287zM0 1194v27h287v-27h-287zM0 1249q0 6 1 12.5t1 12.5h285v-25h-287zM4 1303q0 6 1 12t1 12h283q-2 -6 -2 -20v-4h-283zM10 1356q4 16 6 22h723q4 -12 4 -22h-733zM23 1409q4 16 8 23h694 q2 -6 6 -23h-708zM41 1462q8 16 12 23h649q2 -6 11 -23h-672zM72 1516q4 4 7 10t7 10h584q4 -4 7 -10t7 -10h-612zM121 1571q6 6 22 18h469q6 -6 23 -18h-514zM205 1620q18 8 35.5 11t35.5 7h201q18 -4 36.5 -7t37.5 -11h-346zM467 1327h281q2 -6 2 -12t2 -12h-283v4 q0 6 -1 11t-1 9zM469 8h285v-381v-37h-37h-211h-37v37v381zM469 14v47h285v-47h-285zM469 68v47h285v-47h-285zM469 121v47h285v-47h-285zM469 174v47h285v-47h-285zM469 227v47h285v-47h-285zM469 281v45h285v-45h-285zM469 336v43h285v-43h-285zM469 389v43h285v-43h-285z M469 442v43h285v-43h-285zM469 496v43h285v-43h-285zM469 549v41h285v-41h-285zM469 928v28h285v-28h-285zM469 981v29h285v-29h-285zM469 1034v29h285v-29h-285zM469 1087v29h285v-29h-285zM469 1141v28h285v-28h-285zM469 1194v27h285v-27h-285zM469 1249v25h285v-25h-285 z" />
<glyph unicode="B" horiz-adv-x="892" d="M0 12h295v-127h119q29 0 39 10.5t10 38.5v78h295v-78q0 -106 -28 -173.5t-72 -105.5t-97 -51.5t-104 -13.5h-418h-39v39v383zM0 18v48h295v-48h-295zM0 72v49h295v-49h-295zM0 125v49h295v-49h-295zM0 180v47h295v-47h-295zM0 233v48h295v-48h-295zM0 287v45h295v-45 h-295zM0 342v43h295v-43h-295zM0 397v41h295v-41h-295zM0 451v41h295v-41h-295zM0 504v41h295v-41h-295zM0 557v41h295v-41h-295zM0 610v39h752q6 -18 6 -39h-303q-14 16 -40 21.5t-46 5.5h-74v-27h-295zM0 668v34h733q8 -16 15 -34h-748zM0 721v35h692q16 -14 31 -35h-723z M0 774v35h686l-16 -12t-19 -13q6 -2 19 -10h-670zM0 827v35h731q-8 -16 -26 -35h-705zM0 881v32h750q-2 -14 -11 -32h-739zM0 938v29h295v-29h-295zM0 991v29h295v-29h-295zM0 1044v29h295v-29h-295zM0 1098v30h295v-30h-295zM0 1151v31h295v-31h-295zM0 1204v27h295v-27 h-295zM0 1262v22h295v-22h-295zM0 1315v24h295v-24h-295zM0 1368v25h752q0 -6 1 -12.5t1 -12.5h-754zM0 1421v25h739l6 -25h-745zM0 1475v24h717q8 -16 10 -24h-727zM0 1528v22h682q4 -6 8 -11t8 -11h-698zM0 1585v14v5h616q6 -4 13.5 -9.5t15.5 -9.5h-645zM0 1634v4h39h418 q14 0 27.5 -1t27.5 -3h-512zM412 1339h346v-24h-301q-8 10 -19.5 15t-25.5 9zM430 938q20 8 31 29h297q0 -18 -2 -29h-326zM461 598h297v-10v-31h-295v31q0 8 -2 10zM463 18v48h295v-48h-295zM463 72v49h295v-49h-295zM463 125v49h295v-49h-295zM463 180v47h295v-47h-295z M463 233v48h295v-48h-295zM463 287v45h295v-45h-295zM463 342v43h295v-43h-295zM463 397v41h295v-41h-295zM463 451v41h295v-41h-295zM463 504v41h295v-41h-295zM463 991v29h295v-29h-295zM463 1044v29h295v-29h-295zM463 1098v30h295v-30h-295zM463 1151v31h295v-31h-295z M463 1204v27h295v-27h-295zM463 1262v22h295v-22h-295z" />
<glyph unicode="C" horiz-adv-x="880" d="M0 12h295v-78q0 -29 10 -39t39 -10h88q29 0 39 10.5t10 38.5v78h295q0 -131 -32.5 -213t-82 -128t-111 -63.5t-118.5 -17.5h-88q-59 0 -119.5 17.5t-109.5 63.5t-81 128t-34 213zM0 18v5v43h295v-48h-295zM0 72v49h295v-49h-295zM0 125v49h295v-49h-295zM0 180v47h295 v-47h-295zM0 233v48h295v-48h-295zM0 287v45h295v-45h-295zM0 342v43h295v-43h-295zM0 397v41h295v-41h-295zM0 451v41h295v-41h-295zM0 504v41h295v-41h-295zM0 557v41h295v-41h-295zM0 610v39h295v-39h-295zM0 668v34h295v-34h-295zM0 721v35h295v-35h-295zM0 774v35h295 v-35h-295zM0 827v35h295v-35h-295zM0 881v32h295v-32h-295zM0 938v29h295v-29h-295zM0 991v29h295v-29h-295zM0 1044v29h295v-29h-295zM0 1098v30h295v-30h-295zM0 1151v31h295v-31h-295zM0 1204v2v25h295v-27h-295zM2 1262q0 16 2 22h291v-22h-293zM6 1315q2 6 2 12t2 12 h305q-16 -10 -18 -24h-291zM16 1368l7 25h733l6 -25h-746zM31 1421q2 6 4 12.5t4 12.5h698q4 -8 8 -25h-714zM53 1475q8 16 15 24h643l12 -24h-670zM88 1528q4 6 9 11t9 11h564q4 -6 9 -11t9 -11h-600zM150 1585l30 19h418q8 -4 15.5 -9.5t13.5 -9.5h-477zM289 1634 q14 2 27.5 3t27.5 1h88q14 0 27.5 -1t29.5 -3h-200zM463 1339h303q4 -16 4 -24h-291q-2 14 -16 24zM481 18v48h295v-43v-5h-295zM481 72v49h295v-49h-295zM481 125v49h295v-49h-295zM481 180v19v28h295v-28v-19h-295zM481 233v3h39h219h37v-3h-295zM481 842v20h295v-20h-37 h-219h-39zM481 881v32h295v-32h-295zM481 938v29h295v-29h-295zM481 991v29h295v-29h-295zM481 1044v29h295v-29h-295zM481 1098v30h295v-30h-295zM481 1151v31h295v-31h-295zM481 1204v27h295v-25v-2h-295zM481 1262v22h293q0 -14 2 -22h-295z" />
<glyph unicode="D" horiz-adv-x="913" d="M0 12h295v-127l117 -2q51 0 60 18.5t9 32.5v78h295v-78q0 -106 -27.5 -173.5t-70.5 -105.5t-96.5 -51.5t-104.5 -13.5h-438h-39v39v383zM0 18v48h295v-48h-295zM0 72v49h295v-49h-295zM0 125v49h295v-49h-295zM0 180v47h295v-47h-295zM0 233v48h295v-48h-295zM0 287v45 h295v-45h-295zM0 342v43h295v-43h-295zM0 397v41h295v-41h-295zM0 451v41h295v-41h-295zM0 504v41h295v-41h-295zM0 557v41h295v-41h-295zM0 610v39h295v-39h-295zM0 668v34h295v-34h-295zM0 721v35h295v-35h-295zM0 774v35h295v-35h-295zM0 827v35h295v-35h-295zM0 881v32 h295v-32h-295zM0 938v29h295v-29h-295zM0 991v29h295v-29h-295zM0 1044v29h295v-29h-295zM0 1098v30h295v-30h-295zM0 1151v31h295v-31h-295zM0 1204v27h295v-27h-295zM0 1262v22h295v-22h-295zM0 1315v24h295v-24h-295zM0 1368v25h770q0 -6 1 -12.5t1 -12.5h-772zM0 1421 v25h758l6 -25h-764zM0 1475v24h735q8 -16 10 -24h-745zM0 1528v22h700q4 -6 8.5 -11t8.5 -11h-717zM0 1585v14v5h635q8 -4 14 -9.5t15 -9.5h-664zM0 1634v4h39h438q12 0 25.5 -1t27.5 -3h-530zM453 1339h323v-24h-297q-4 16 -26 24zM481 18v48h295v-48h-295zM481 72v49h295 v-49h-295zM481 125v49h295v-49h-295zM481 180v47h295v-47h-295zM481 233v48h295v-48h-295zM481 287v45h295v-45h-295zM481 342v43h295v-43h-295zM481 397v41h295v-41h-295zM481 451v41h295v-41h-295zM481 504v41h295v-41h-295zM481 557v41h295v-41h-295zM481 610v39h295v-39 h-295zM481 668v34h295v-34h-295zM481 721v35h295v-35h-295zM481 774v35h295v-35h-295zM481 827v35h295v-35h-295zM481 881v32h295v-32h-295zM481 938v29h295v-29h-295zM481 991v29h295v-29h-295zM481 1044v29h295v-29h-295zM481 1098v30h295v-30h-295zM481 1151v31h295v-31 h-295zM481 1204v27h295v-27h-295zM481 1262v22h295v-22h-295z" />
<glyph unicode="E" horiz-adv-x="802" d="M0 12h295v-127h393h12v-37v-219v-39h-12h-649h-39v39v383zM0 18v48h295v-48h-295zM0 72v49h295v-49h-295zM0 125v49h295v-49h-295zM0 180v47h295v-47h-295zM0 233v48h295v-48h-295zM0 287v45h295v-45h-295zM0 342v43h295v-43h-295zM0 397v41h295v-41h-295zM0 451v41h295 v-41h-295zM0 504v41h295v-41h-295zM0 557v41h295v-41h-295zM0 610v39h676v-26h-39h-342v-13h-295zM0 668v34h676v-34h-676zM0 721v35h676v-35h-676zM0 774v35h676v-35h-676zM0 827v35h676v-35h-676zM0 881v32h676v-28v-4h-676zM0 938v29h295v-29h-295zM0 991v29h295v-29 h-295zM0 1044v29h295v-29h-295zM0 1098v30h295v-30h-295zM0 1151v31h295v-31h-295zM0 1204v27h295v-27h-295zM0 1262v22h295v-22h-295zM0 1315v24h295v-24h-295zM0 1368v25h700v-13v-12h-700zM0 1421v25h700v-25h-700zM0 1475v24h700v-24h-700zM0 1528v22h700v-22h-700z M0 1585v14v5h700v-5v-14h-700zM0 1634v4h39h649h12v-4h-700z" />
<glyph unicode="F" horiz-adv-x="782" d="M0 12h295v-383v-39h-39h-217h-39v39v383zM0 18v48h295v-48h-295zM0 72v47h295v-47h-295zM0 125v49h295v-49h-295zM0 178v49h295v-49h-295zM0 231v50h295v-50h-295zM0 287v43h295v-43h-295zM0 342v41h295v-41h-295zM0 395v43h295v-43h-295zM0 449v43h295v-43h-295zM0 502 v43h295v-43h-295zM0 557v41h295v-41h-295zM0 610v39h676v-26h-39h-342v-13h-295zM0 666v36h676v-36h-676zM0 719v37h676v-37h-676zM0 772v37h676v-37h-676zM0 825v37h676v-37h-676zM0 881v32h676v-28v-4h-676zM0 936v31h295v-31h-295zM0 989v31h295v-31h-295zM0 1042v31h295 v-31h-295zM0 1096v30h295v-30h-295zM0 1151v29h295v-29h-295zM0 1204v27h295v-27h-295zM0 1260v24h295v-24h-295zM0 1313v24h295v-24h-295zM0 1366v25h700v-11v-14h-700zM0 1421v23h700v-23h-700zM0 1475v22h700v-22h-700zM0 1528v20h700v-20h-700zM0 1583v16v3h700v-3v-16 h-700zM0 1634v4h39l661 -2v-2h-700z" />
<glyph unicode="G" horiz-adv-x="905" d="M0 12h295v-78q0 -29 10 -39t39 -10h88q29 0 39 10.5t10 38.5v78h295v-383v-39h-37h-49h-170h-39h-100h-37h-10q-57 2 -116.5 20.5t-107 64.5t-78 128t-32.5 209zM0 18v5v43h295v-48h-295zM0 72v49h295v-49h-295zM0 127v47h295v-47h-295zM0 180v47h295v-47h-295zM0 233v48 h295v-48h-295zM0 287v45h295v-45h-295zM0 342v43h295v-43h-295zM0 397v41h295v-41h-295zM0 451v41h295v-41h-295zM0 504v41h295v-41h-295zM0 557v41h295v-41h-295zM0 610v39h295v-39h-295zM0 668v34h295v-34h-295zM0 721v35h295v-35h-295zM0 774v35h295v-35h-295zM0 827v35 h295v-35h-295zM0 881v32h295v-32h-295zM0 938v29h295v-29h-295zM0 991v29h295v-29h-295zM0 1044v29h295v-29h-295zM0 1098v30h295v-30h-295zM0 1151v31h295v-31h-295zM0 1204v2v25h295v-27h-295zM2 1262q0 16 2 22h291v-22h-293zM6 1315q2 6 2 12t2 12h305q-16 -10 -18 -24 h-291zM16 1368l7 25h733l6 -25h-746zM31 1421q2 6 4 12.5t4 12.5h698q4 -8 8 -25h-714zM53 1475q8 16 15 24h643l12 -24h-670zM88 1528q4 6 9 11t9 11h564q4 -6 9 -11t9 -11h-600zM150 1585l30 19h418q8 -4 15.5 -9.5t13.5 -9.5h-477zM289 1634q14 2 27.5 3t27.5 1h88 q14 0 27.5 -1t29.5 -3h-200zM389 623v26h387v-39h-295v13h-55h-37zM389 668v34h387v-34h-387zM389 721v35h387v-35h-387zM389 774v35h387v-35h-387zM389 827v35h387v-35h-387zM389 881v32h387v-32h-387zM463 1339h303q4 -16 4 -24h-291q-2 14 -16 24zM481 18v48h295v-48 h-295zM481 72v49h295v-49h-295zM481 127v47h295v-47h-295zM481 180v47h295v-47h-295zM481 233v48h295v-48h-295zM481 287v45h295v-45h-295zM481 342v43h295v-43h-295zM481 397v41h295v-41h-295zM481 451v41h295v-41h-295zM481 504v41h295v-41h-295zM481 557v41h295v-41h-295 zM481 1044v29h295v-29h-295zM481 1098v30h295v-30h-295zM481 1151v31h295v-31h-295zM481 1204v27h295v-25v-2h-295zM481 1262v22h293q0 -14 2 -22h-295z" />
<glyph unicode="H" horiz-adv-x="925" d="M0 14h295v-385v-37h-39h-219h-37v37v385zM0 20v48h295v-48h-295zM0 74v47h295v-47h-295zM0 127v47h295v-47h-295zM0 180v47h295v-47h-295zM0 233v48h295v-48h-295zM0 287v45h295v-45h-295zM0 344v41h295v-41h-295zM0 397v41h295v-41h-295zM0 451v41h295v-41h-295zM0 504 v41h295v-41h-295zM0 557v41h295v-41h-295zM0 610v39h776v-39h-295v13h-186v-13h-295zM0 668v34h776v-34h-776zM0 721v35h776v-35h-776zM0 774v35h776v-35h-776zM0 827v35h776v-35h-776zM0 881v32h776v-32h-776zM0 936v31h295v-31h-295zM0 991v29h295v-29h-295zM0 1044v29 h295v-29h-295zM0 1098v28h295v-28h-295zM0 1151v29h295v-29h-295zM0 1204v27h295v-27h-295zM0 1260v24h295v-24h-295zM0 1315v22h295v-22h-295zM0 1368v23h295v-23h-295zM0 1421v23h295v-23h-295zM0 1475v22h295v-22h-295zM0 1528v20h295v-20h-295zM0 1583v16v3h295v-3v-16 h-295zM0 1634v2h37h219h39v-2h-295zM481 14h295v-385v-39h-39l-219 2h-37v37v385zM481 20v48h295v-48h-295zM481 74v47h295v-47h-295zM481 127v47h295v-47h-295zM481 180v47h295v-47h-295zM481 233v48h295v-48h-295zM481 287v45h295v-45h-295zM481 344v41h295v-41h-295z M481 397v41h295v-41h-295zM481 451v41h295v-41h-295zM481 504v41h295v-41h-295zM481 557v41h295v-41h-295zM481 936v31h295v-31h-295zM481 991v29h295v-29h-295zM481 1044v29h295v-29h-295zM481 1098v28h295v-28h-295zM481 1151v29h295v-29h-295zM481 1204v27h295v-27h-295z M481 1260v24h295v-24h-295zM481 1315v22h295v-22h-295zM481 1368v23h295v-23h-295zM481 1421v23h295v-23h-295zM481 1475v22h295v-22h-295zM481 1528v20h295v-20h-295zM481 1583v16v3h295v-3v-16h-295zM481 1634v2h37l219 2h39v-4h-295z" />
<glyph unicode="I" d="M0 12h295v-383v-39h-37h-219h-39v39v383zM0 18v48h295v-48h-295zM0 72v49h295v-49h-295zM0 127v47h295v-47h-295zM0 180v47h295v-47h-295zM0 233v48h295v-48h-295zM0 287v45h295v-45h-295zM0 342v43h295v-43h-295zM0 397v41h295v-41h-295zM0 451v41h295v-41h-295zM0 504 v41h295v-41h-295zM0 557v41h295v-41h-295zM0 610v39h295v-39h-295zM0 668v34h295v-34h-295zM0 721v35h295v-35h-295zM0 774v35h295v-35h-295zM0 827v35h295v-35h-295zM0 881v32h295v-32h-295zM0 938v29h295v-29h-295zM0 991v29h295v-29h-295zM0 1044v29h295v-29h-295z M0 1098v30h295v-30h-295zM0 1151v31h295v-31h-295zM0 1204v27h295v-27h-295zM0 1262v22h295v-22h-295zM0 1315v24h295v-24h-295zM0 1368v25h295v-25h-295zM0 1421v25h295v-25h-295zM0 1475v24h295v-24h-295zM0 1528v22h295v-22h-295zM0 1585v14v5h295v-5v-14h-295zM0 1634 v13h39h219h37v-13h-295z" />
<glyph unicode="J" horiz-adv-x="923" d="M0 12h295v-78q0 -29 10 -39t39 -10h88q29 0 39 10.5t10 38.5v78h295q0 -131 -32.5 -213t-82 -128t-111 -63.5t-118.5 -17.5h-88q-59 0 -119.5 17.5t-109.5 63.5t-81 128t-34 213zM0 18v5v43h295v-48h-295zM0 72v49h295v-49h-295zM0 127v47h295v-47h-295zM0 180v47h295 v-47h-295zM0 233v48h295v-48h-295zM0 287v45h295v-45h-295zM0 342v43h295v-43h-295zM0 397v41h295v-41h-295zM0 451v41h295v-41h-295zM0 504v41h295v-41h-295zM481 18v48h295v-43v-5h-295zM481 72v49h295v-49h-295zM481 127v47h295v-47h-295zM481 180v47h295v-47h-295z M481 233v48h295v-48h-295zM481 287v45h295v-45h-295zM481 342v43h295v-43h-295zM481 397v41h295v-41h-295zM481 451v41h295v-41h-295zM481 504v41h295v-41h-295zM481 557v41h295v-41h-295zM481 610v39h295v-39h-295zM481 668v34h295v-34h-295zM481 721v35h295v-35h-295z M481 774v35h295v-35h-295zM481 827v35h295v-35h-295zM481 881v32h295v-32h-295zM481 938v29h295v-29h-295zM481 991v29h295v-29h-295zM481 1044v29h295v-29h-295zM481 1098v30h295v-30h-295zM481 1151v31h295v-31h-295zM481 1204v27h295v-27h-295zM481 1262v22h295v-22h-295 zM481 1315v24h295v-24h-295zM481 1368v25h295v-25h-295zM481 1421v25h295v-25h-295zM481 1475v24h295v-24h-295zM481 1528v22h295v-22h-295zM481 1585v14v5h295v-5v-14h-295zM481 1634v4h39h219h37v-4h-295z" />
<glyph unicode="K" horiz-adv-x="954" d="M0 25h299v-396v-39h-39h-221h-39v39v396zM0 31v49h299v-49h-299zM0 86v47h299v-47h-299zM0 139v49h299v-49h-299zM0 195v47h299v-47h-299zM0 248v49h575l19 -49h-279l-16 43v-43h-299zM0 303v45h555l18 -45h-573zM0 360v41h535l16 -41h-551zM0 414v43h512l16 -43h-528z M0 469v41h492l16 -41h-508zM0 522v43h469l18 -43h-487zM0 578v40h449l16 -40h-465zM0 631v39h428l2 -4l14 -35h-444zM0 688v37h428l-10 -25l4 -12h-422zM0 743v35h453l-17 -35h-436zM0 797v37h477l-16 -37h-461zM0 852v35h502l-17 -35h-485zM0 905v33h524l-14 -33h-510z M0 963v30h549l-12 -30h-537zM0 1018v29h573l-12 -29h-561zM0 1071v31h598l-12 -31h-586zM0 1126v29h299v-29h-299zM0 1180v30h299v-30h-299zM0 1235v27h299v-27h-299zM0 1292v23h299v-23h-299zM0 1346v24h299v-24h-299zM0 1401v22h299v-22h-299zM0 1454v25h299v-25h-299z M0 1509v23h299v-23h-299zM0 1563v22h299v-22h-299zM0 1620v10v8h299v-8v-10h-299zM309 1126l15 29h299l-13 -29h-301zM317 242h279l18 -47h-280zM334 1180l12 30h301l-12 -30h-301zM336 188h280l21 -49h-285zM354 133h285l18 -47h-284zM356 1235l13 27h301l-13 -27h-301z M375 80h284l19 -49h-287zM383 1292l10 23h301l-10 -23h-301zM393 25h289l149 -381l21 -54h-57h-224h-26l-8 27zM406 1346l10 24h303l-10 -24h-303zM430 1401l10 22h303l-10 -22h-303zM453 1454l10 25h305l-10 -25h-305zM477 1509l10 23h306l-11 -23h-305zM500 1563l10 22 h305l-8 -22h-307zM526 1620l9 18h305l-9 -18h-305z" />
<glyph unicode="L" horiz-adv-x="843" d="M0 25h299v-136h408h36v-39v-221v-39h-36h-668h-39v39v396zM0 31v49h299v-49h-299zM0 86v47h299v-47h-299zM0 139v49h299v-49h-299zM0 195v47h299v-47h-299zM0 248v49h299v-49h-299zM0 303v45h299v-45h-299zM0 360v41h299v-41h-299zM0 414v43h299v-43h-299zM0 469v41h299 v-41h-299zM0 522v43h299v-43h-299zM0 578v40h299v-40h-299zM0 631v39h299v-39h-299zM0 688v37h299v-37h-299zM0 743v35h299v-35h-299zM0 797v37h299v-37h-299zM0 852v35h299v-35h-299zM0 905v33h299v-33h-299zM0 963v30h299v-30h-299zM0 1018v29h299v-29h-299zM0 1071v31 h299v-31h-299zM0 1126v29h299v-29h-299zM0 1180v30h299v-30h-299zM0 1235v27h299v-27h-299zM0 1292v23h299v-23h-299zM0 1346v24h299v-24h-299zM0 1401v22h299v-22h-299zM0 1454v25h299v-25h-299zM0 1509v23h299v-23h-299zM0 1563v22h299v-22h-299zM0 1620v10v8h299v-8v-10 h-299z" />
<glyph unicode="M" horiz-adv-x="1337" d="M0 25h299v-396v-39h-39h-221h-39v39v396zM0 31v49h299v-49h-299zM0 86v47h299v-47h-299zM0 139v49h299v-49h-299zM0 195v47h299v-47h-299zM0 248v49h299v-49h-299zM0 303v45h299v-45h-299zM0 360v41h299v-41h-299zM0 414v43h299v-43h-299zM0 469v41h299v-41h-299zM0 522 v43h299v-43h-299zM0 578v40h299v-40h-299zM0 631v39h299v-39h-299zM0 688v37h559l6 -37h-565zM0 743v35h549l6 -35h-555zM0 797v37h539l6 -37h-545zM0 852v35h528l9 -35h-537zM0 905v33h520l6 -33h-526zM0 963v30h510l6 -30h-516zM0 1018v29h500l6 -29h-506zM0 1071v31h492 l4 -31h-496zM0 1126v29h481l6 -29h-487zM0 1180v30h471l6 -30h-477zM0 1235v27h463l4 -27h-467zM0 1292v23h453l4 -23h-457zM0 1346v24h442l4 -24h-446zM0 1401v22h432l4 -22h-436zM0 1454v25h424l4 -25h-428zM0 1509v23h414l4 -23h-418zM0 1563v20h403l5 -20h-408zM0 1620 v10v8h395l2 -18h-397zM299 670h268l8 -39h-270zM307 618h271l8 -40h-273zM315 565h273l6 -43h-275zM322 510h274l6 -31l6 31h258l-6 -41h-532zM330 457h530l-6 -43h-518zM338 401h514l-6 -41h-502zM344 348h500l-6 -45h-488zM352 297h486l-7 -49h-473zM358 242h471l-6 -47 h-456zM367 188h454l-6 -49h-442zM375 133h440l-8 -47h-426zM383 80h424l-6 -49h-412zM389 25h410l-56 -402l-6 -33h-30h-224h-32l-7 33zM610 522l6 43h258l-6 -43h-258zM618 578l7 40h258l-6 -40h-259zM627 631l8 39h254l-6 -39h-256zM637 688l6 37h547v-37h-553zM645 743 l6 35h539v-35h-545zM655 797l7 37h528v-37h-535zM664 852l6 35h520v-35h-526zM674 905l4 33h512v-33h-516zM682 963l6 30h502v-30h-508zM692 1018l4 29h494v-29h-498zM700 1071l5 31h485v-31h-490zM709 1126l6 29h475v-29h-481zM719 1180l4 30h467v-30h-471zM727 1235l4 27 h459v-27h-463zM737 1292l4 23h449v-23h-453zM745 1346l5 24h440v-24h-445zM756 1401l4 22h430v-22h-434zM764 1454l4 25h422v-25h-426zM772 1509l4 23h414v-23h-418zM782 1563l4 20h404v-20h-408zM793 1620l2 18h395v-8v-10h-397zM889 25h301v-396v-39h-39h-223h-39v39v396z M889 31v49h301v-49h-301zM889 86v47h301v-47h-301zM889 139v49h301v-49h-301zM889 195v47h301v-47h-301zM889 248v49h301v-49h-301zM889 303v45h301v-45h-301zM889 360v41h301v-41h-301zM889 414v43h301v-43h-301zM889 469v41h301v-41h-301zM889 522v43h301v-43h-301z M889 578v40h301v-40h-301zM889 631v39h301v-39h-301z" />
<glyph unicode="N" horiz-adv-x="1026" d="M0 25h299v-396v-39h-39h-221h-39v39v396zM0 31v49h299v-49h-299zM0 86v47h299v-47h-299zM0 139v49h299v-49h-299zM0 195v47h299v-47h-299zM0 248v49h299v-49h-299zM0 303v45h299v-45h-299zM0 360v41h299v-41h-299zM0 414v43h299v-43h-299zM0 469v41h299v-41h-299zM0 522 v43h299v-43h-299zM0 578v40h299v-40h-299zM0 631v39h547l8 -39h-252l-4 16v-16h-299zM0 688v37h535l8 -37h-543zM0 743v35h524l8 -35h-532zM0 797v37h512l8 -37h-520zM0 852v35h502l6 -35h-508zM0 905v33h489l9 -33h-498zM0 963v30h479l6 -30h-485zM0 1018v29h467l6 -29 h-473zM0 1071v31h457l6 -31h-463zM0 1126v29h444l7 -29h-451zM0 1180v30h432l8 -30h-440zM0 1235v27h422l6 -27h-428zM0 1292v23h412l4 -23h-416zM0 1346v24h399l7 -24h-406zM0 1401v22h389l4 -22h-393zM0 1454v25h377l4 -25h-381zM0 1509v23h365l6 -23h-371zM0 1563v20h354 l4 -20h-358zM0 1620v10v8h344l2 -18h-346zM305 618h252l10 -40h-252zM317 565h252l9 -43h-250zM330 510h549v-41h-539zM344 457h535v-43h-527zM356 401h523v-41h-514zM369 348h510v-45h-500zM379 297h500v-49h-488zM393 242h486v-47h-476zM406 188h473v-49h-463zM418 133 h461v-47h-451zM430 80h449v-49h-439zM442 25h437v-396v-39h-39h-269h-28l-8 29zM578 522v43h301v-43h-301zM578 578v40h301v-40h-301zM578 631v39h301v-39h-301zM578 688v37h301v-37h-301zM578 743v35h301v-35h-301zM578 797v37h301v-37h-301zM578 852v35h301v-35h-301z M578 905v33h301v-33h-301zM578 963v30h301v-30h-301zM578 1018v29h301v-29h-301zM578 1071v31h301v-31h-301zM578 1126v29h301v-29h-301zM578 1180v30h301v-30h-301zM578 1235v27h301v-27h-301zM578 1292v23h301v-23h-301zM578 1346v24h301v-24h-301zM578 1401v22h301v-22 h-301zM578 1454v25h301v-25h-301zM578 1509v23h301v-23h-301zM578 1563v20h301v-20h-301zM578 1620v10v8h301v-8v-10h-301z" />
<glyph unicode="O" horiz-adv-x="921" d="M-4 18h303v-84q0 -29 11.5 -40t39.5 -11h88q29 0 40 11.5t11 39.5v84h304q0 -135 -33 -221t-84 -134t-113.5 -65.5t-124.5 -17.5h-88q-61 0 -123.5 17.5t-114 65.5t-84 134t-32.5 221zM-4 25v49h303v-49h-303zM-4 80v49h303v-49h-303zM-4 135v49h303v-49h-303zM-4 190v48 h303v-48h-303zM-4 244v49h303v-49h-303zM-4 299v45h303v-45h-303zM-4 356v43h303v-43h-303zM-4 412v43h303v-43h-303zM-4 467v43h303v-43h-303zM-4 522v41h303v-41h-303zM-4 575v43h303v-43h-303zM-4 631v41h303v-41h-303zM-4 688v37h303v-37h-303zM-4 743v37h303v-37h-303z M-4 799v37h303v-37h-303zM-4 854v37h303v-37h-303zM-4 909v33h303v-33h-303zM-4 967v30h303v-30h-303zM-4 1022v29h303v-29h-303zM-4 1075v31h303v-31h-303zM-4 1130v31h303v-31h-303zM-4 1186v31h303v-31h-303zM-4 1241v27h303v-27h-303zM-2 1298q0 6 1 12.5t1 12.5h299 v-25h-301zM4 1354q0 8 4 24h772q4 -16 4 -24h-297q-8 23 -49 22h-88q-41 0 -47 -22h-299zM14 1409q4 16 6 23h748q2 -6 6 -23h-760zM29 1462q8 16 10 25h711q4 -6 5 -12.5t5 -12.5h-731zM53 1518q6 8 15 24h653q4 -6 7 -12t7 -12h-682zM90 1573l21 20h567q4 -4 10 -9t10 -11 h-608zM158 1630q8 4 16 9.5t19 9.5h403q10 -4 18.5 -9.5t16.5 -9.5h-473zM489 25v49h304v-49h-304zM489 80v49h304v-49h-304zM489 135v49h304v-49h-304zM489 190v48h304v-48h-304zM489 244v49h304v-49h-304zM489 299v45h304v-45h-304zM489 356v43h304v-43h-304zM489 412v43 h304v-43h-304zM489 467v43h304v-43h-304zM489 522v41h304v-41h-304zM489 575v43h304v-43h-304zM489 631v41h304v-41h-304zM489 688v37h304v-37h-304zM489 743v37h304v-37h-304zM489 799v37h304v-37h-304zM489 854v37h304v-37h-304zM489 909v33h304v-33h-304zM489 967v30h304 v-30h-304zM489 1022v29h304v-29h-304zM489 1075v31h304v-31h-304zM489 1130v31h304v-31h-304zM489 1186v31h304v-31h-304zM489 1241v27h304v-27h-304zM489 1298v25h299q0 -6 1.5 -12t1.5 -13h-302z" />
<glyph unicode="P" horiz-adv-x="870" d="M0 25h299v-396v-39h-39h-221h-39v39v396zM0 31v49h299v-49h-299zM0 86v47h299v-47h-299zM0 139v49h299v-49h-299zM0 195v47h299v-47h-299zM0 248v49h299v-49h-299zM0 303v45h299v-45h-299zM0 360v41h299v-41h-299zM0 414v43h299v-43h-299zM0 469v41h299v-41h-299zM0 522 v43h299v-43h-299zM0 578v40h631q-35 -16 -73 -22t-75 -6h-184v-12h-299zM0 631v39h702q-10 -10 -22 -20.5t-27 -18.5h-653zM0 688v37h743q-12 -23 -24 -37h-719zM0 743v35h766q-4 -10 -7 -18t-7 -17h-752zM0 797v37h780q-2 -10 -4 -18.5t-4 -18.5h-772zM0 852v35h786 q0 -14 -4 -35h-782zM0 905v33h299v-33h-299zM0 963v30h299v-30h-299zM0 1018v29h299v-29h-299zM0 1071v31h299v-31h-299zM0 1126v29h299v-29h-299zM0 1180v30h299v-30h-299zM0 1235v27h299v-27h-299zM0 1292v23h299v-23h-299zM0 1346v24h786q2 -8 2 -24h-303q-6 10 -20 17 t-47 7h-119v-24h-299zM0 1401v22h780q2 -4 2 -10t2 -12h-784zM0 1454v25h766q4 -8 8 -25h-774zM0 1509v23h743q4 -6 13 -23h-756zM0 1563v20h707q12 -12 18 -20h-725zM0 1620v10v8h633q10 -4 17 -8t16 -10h-666zM479 905q8 8 9 16.5t1 16.5h299v-33h-309zM489 963v30h299 v-30h-299zM489 1018v29h299v-29h-299zM489 1071v31h299v-31h-299zM489 1126v29h299v-29h-299zM489 1180v30h299v-30h-299zM489 1235v27h299v-27h-299zM489 1292v23h299v-23h-299z" />
<glyph unicode="Q" horiz-adv-x="874" d="M-49 -2h301v-88q0 -14 4 -31h25h155q6 12 6 31v88h299q0 -160 -43 -250t-108 -133l149 -279h-344l-104 224q-59 2 -119.5 20.5t-110 67.5t-80 133t-30.5 217zM-49 4v49h301v-49h-301zM-49 59v50h301v-50h-301zM-49 115v47h301v-47h-301zM-49 168v49h301v-49h-301z M-49 223v47h301v-47h-301zM-49 276v48h301v-48h-301zM-49 334v43h301v-43h-301zM-49 389v43h301v-43h-301zM-49 444v41h301v-41h-301zM-49 498v43h301v-43h-301zM-49 553v43h301v-43h-301zM-49 606v41h301v-41h-301zM-49 666v34h301v-34h-301zM-49 719v37h301v-37h-301z M-49 774v35h301v-35h-301zM-49 827v37h301v-37h-301zM-49 883v32h301v-32h-301zM-49 940v31h301v-31h-301zM-49 995v29h301v-29h-301zM-49 1049v30h301v-30h-301zM-49 1104v31h301v-31h-301zM-49 1157v31h301v-31h-301zM-49 1212q0 8 1 14.5t1 12.5h299v-27h-301zM-47 1270 q2 6 2 12t2 12h295v-2v-22h-299zM-41 1325q4 16 4 25h766q2 -6 2 -12.5t2 -12.5h-297q-10 16 -45 16h-90q-35 0 -43 -16h-299zM-29 1378l6 25h740l6 -25h-752zM-12 1434q2 8 10 24h698q2 -8 11 -24h-719zM12 1487q4 8 7.5 14t7.5 10h639q4 -4 7 -10l7 -14h-668zM51 1542 q4 6 10.5 11.5t10.5 9.5h549q12 -8 20 -21h-590zM123 1599q18 12 39 19h368q20 -6 39 -19h-446zM442 4v49h299v-49h-299zM442 59v50h299v-50h-299zM442 115v47h299v-47h-299zM442 168v49h299v-49h-299zM442 223v47h299v-47h-299zM442 276v48h299v-48h-299zM442 334v43h299 v-43h-299zM442 389v43h299v-43h-299zM442 444v41h299v-41h-299zM442 498v43h299v-43h-299zM442 553v43h299v-43h-299zM442 606v41h299v-41h-299zM442 666v34h299v-34h-299zM442 719v37h299v-37h-299zM442 774v35h299v-35h-299zM442 827v37h299v-37h-299zM442 883v32h299v-32 h-299zM442 940v31h299v-31h-299zM442 995v29h299v-29h-299zM442 1049v30h299v-30h-299zM442 1104v31h299v-31h-299zM442 1157v31h299v-31h-299zM442 1212v27h299v-27h-299zM442 1270v22v2h295q0 -6 1 -12t1 -12h-297z" />
<glyph unicode="R" horiz-adv-x="884" d="M0 25h299v-396v-39h-39h-221h-39v39v396zM0 31v49h299v-49h-299zM0 86v47h299v-47h-299zM0 139v49h299v-49h-299zM0 195v47h299v-47h-299zM0 248v49h299v-49h-299zM0 303v45h299v-45h-299zM0 360v41h299v-41h-299zM0 414v43h299v-43h-299zM0 469v41h299v-41h-299zM0 522 v43h299v-43h-299zM0 578v40h715q8 -18 14 -40h-287q-6 31 -47 30h-96v-30h-299zM0 631v39h688q10 -16 21 -39h-709zM0 688v37h643q10 -10 17.5 -18.5t15.5 -18.5h-676zM0 743v35h674q-23 -20 -53 -35h2h-623zM0 797v37h717q-10 -18 -25 -37h-692zM0 852v35h737 q-2 -16 -10 -35h-727zM0 905v33h299v-33h-299zM0 963v30h299v-30h-299zM0 1018v29h299v-29h-299zM0 1071v31h299v-31h-299zM0 1126v29h299v-29h-299zM0 1180v30h299v-30h-299zM0 1235v27h299v-27h-299zM0 1292v23h299v-23h-299zM0 1346v24h741q2 -8 2 -24h-303q-6 10 -20 17 t-47 7h-74v-24h-299zM0 1401v22h735q2 -4 2 -10t2 -12h-739zM0 1454v25h723l6 -25h-729zM0 1509v23h698q4 -6 13 -23h-711zM0 1563v22h662q4 -6 9 -11t9 -11h-680zM0 1620v10v8h588q10 -4 17 -8t16 -10h-621zM434 905q8 8 9 16.5t1 16.5h299v-15.5t-2 -17.5h-307zM444 25 h299v-435h-299v435zM444 31v49h299v-49h-299zM444 86v47h299v-47h-299zM444 139v49h299v-49h-299zM444 195v47h299v-47h-299zM444 248v49h299v-49h-299zM444 303v45h299v-45h-299zM444 360v41h299v-41h-299zM444 414v43h299v-43h-299zM444 469v41h297q2 -10 2 -18.5v-18.5 v-4h-299zM444 522v35v8h289q4 -10 5 -21.5t3 -21.5h-297zM444 963v30h299v-30h-299zM444 1018v29h299v-29h-299zM444 1071v31h299v-31h-299zM444 1126v29h299v-29h-299zM444 1180v30h299v-30h-299zM444 1235v27h299v-27h-299zM444 1292v23h299v-23h-299z" />
<glyph unicode="S" horiz-adv-x="909" d="M-4 -4v49h303v-49h-303zM-4 -10h303v-76q0 -20 11.5 -36.5t60.5 -20.5q121 6 121 57v76h303v-76q0 -174 -90.5 -264t-264.5 -90h-90q-174 0 -264 90t-90 264v76zM-4 51v49h303v-49h-303zM-4 106v33v17h303v-17v-33h-303zM-4 162v16h39h225h39v-16h-303zM-4 997v31h323 l7.5 -15t7.5 -16h-338zM-4 1053v30h305q2 -6 3 -13t5 -17h-313zM-4 1108v31h303v-31h-303zM-4 1163v31h303v-31h-303zM-4 1219v26h303v-26h-303zM-2 973h348l4 -4q6 -14 17 -27h-365q-4 20 -4 31zM-2 1276q0 6 1 12t1 12h299v-24h-301zM4 1331q0 6 1 12.5t1 12.5h330 q-29 -8 -35 -25h-297zM6 918h377q10 -18 23 -33h-390q-4 8 -5 16t-5 17zM12 1386l6 25h754l6 -25h-766zM25 866h393l24 -37h-401q-4 10 -8 18.5t-8 18.5zM29 1442l4 12l4 12h715q8 -16 10 -24h-733zM49 811h408q6 -10 12 -18.5t14 -18.5h-413q-6 10 -11.5 18.5t-9.5 18.5z M51 1497q6 8 15 25h659l12 -25h-686zM80 756h416q8 -10 14 -18.5t14 -18.5h-420zM88 1552q4 4 9 10.5t9 10.5h576q6 -4 11 -10.5t9 -10.5h-614zM117 700h420q8 -10 14 -18t14 -18h-422q-8 10 -14 18t-12 18zM152 1610q8 4 16 9t16 9h422l31 -18h-485zM156 645h424 q6 -8 12 -15t14 -18q4 -4 4 -6h-422q-2 0 -2 1t-2 1q-8 10 -14 18.5t-14 18.5zM197 594h424q10 -10 17 -21.5t15 -21.5h-422q-10 10 -17 21.5t-17 21.5zM240 539h422l30 -43h-420q-8 10 -15 21t-17 22zM283 483h415q8 -10 14.5 -21t12.5 -22h-412zM322 428h409 q6 -10 12.5 -21.5t10.5 -21.5h-402zM360 373h400q4 -10 8 -21.5t8 -21.5h-385zM399 317h381q8 -27 11 -45h-363q-14 25 -29 45zM430 1356h352q4 -16 4 -25h-303q-10 16 -53 25zM432 266h359q2 -10 3 -18t1 -19v-12h-332q-4 6 -8 14q-4 10 -10.5 17.5t-12.5 17.5zM467 211 h328v-49h-310q-4 14 -9 26.5zM487 156h308v-50h-303v7v6q0 10 -1.5 18t-3.5 19zM492 -4v49h303v-49h-303zM492 51v41v8h303v-49h-303zM492 1053v30h303v-30h-303zM492 1108v31h303v-31h-303zM492 1163v31h303v-31h-303zM492 1219v26h301q2 -8 2 -26h-303zM492 1276v24h299 q0 -6 1 -12t1 -12h-301z" />
<glyph unicode="T" horiz-adv-x="952" d="M0 1399v14v10h836v-10v-14h-836zM0 1454v25h836v-25h-836zM0 1507v25h836v-25h-836zM0 1563v20h836v-20h-836zM0 1620v16v2h836v-2v-16h-836zM268 18h299v-389v-39h-37h-223h-39v39v389zM268 25v49h299v-49h-299zM268 80v49h299v-49h-299zM268 135v47h299v-47h-299z M268 188v50h299v-50h-299zM268 244v47h299v-47h-299zM268 297v47h299v-47h-299zM268 356v41h299v-41h-299zM268 410v43h299v-43h-299zM268 465v41h299v-41h-299zM268 518v43h299v-43h-299zM268 573v43h299v-43h-299zM268 627v41h299v-41h-299zM268 686v35h299v-35h-299z M268 739v37h299v-37h-299zM268 795v36h299v-36h-299zM268 848v37h299v-37h-299zM268 903v33h299v-33h-299zM268 961v30h299v-30h-299zM268 1016v28h299v-28h-299zM268 1069v31h299v-31h-299zM268 1124v31h299v-31h-299zM268 1178v30h299v-30h-299zM268 1233v27h299v-27h-299 zM268 1290v25h299v-25h-299zM268 1346v24h299v-24h-299z" />
<glyph unicode="U" horiz-adv-x="923" d="M0 12h295v-78q0 -29 10 -39t39 -10h88q29 0 39 10.5t10 38.5v78h295q-2 -131 -33.5 -213t-81 -128t-111 -63.5t-118.5 -17.5h-88q-59 0 -119.5 17.5t-109.5 63.5t-81 128t-34 213zM0 18v5v43h295v-48h-295zM0 72v47h295v-47h-295zM0 125v47h295v-47h-295zM0 178v47h295 v-47h-295zM0 231v48h295v-48h-295zM0 285v45h295v-45h-295zM0 342v41h295v-41h-295zM0 395v41h295v-41h-295zM0 449v40h295v-40h-295zM0 502v41h295v-41h-295zM0 555v43h295v-43h-295zM0 608v39h295v-39h-295zM0 666v34h295v-34h-295zM0 719v37h295v-37h-295zM0 772v37h295 v-37h-295zM0 825v37h295v-37h-295zM0 879v32h295v-32h-295zM0 936v31h295v-31h-295zM0 989v31h295v-31h-295zM0 1042v31h295v-31h-295zM0 1096v30h295v-30h-295zM0 1151v29h295v-29h-295zM0 1204v27h295v-27h-295zM0 1260v24h295v-24h-295zM0 1313v24h295v-24h-295zM0 1366 v25h295v-25h-295zM0 1421v23h295v-23h-295zM0 1475v22h295v-22h-295zM0 1528v20h295v-20h-295zM0 1583v16v3h295v-3v-16h-295zM0 1636v2h39h219h37v-2h-295zM481 18v48h295v-43v-5h-295zM481 72v47h295v-47h-295zM481 125v47h295v-47h-295zM481 178v47h295v-47h-295z M481 231v48h295v-48h-295zM481 285v45h295v-45h-295zM481 342v41h295v-41h-295zM481 395v41h295v-41h-295zM481 449v40h295v-40h-295zM481 502v41h295v-41h-295zM481 555v43h295v-43h-295zM481 608v39h295v-39h-295zM481 666v34h295v-34h-295zM481 719v37h295v-37h-295z M481 772v37h295v-37h-295zM481 825v37h295v-37h-295zM481 879v32h295v-32h-295zM481 936v31h295v-31h-295zM481 989v31h295v-31h-295zM481 1042v31h295v-31h-295zM481 1096v30h295v-30h-295zM481 1151v29h295v-29h-295zM481 1204v27h295v-27h-295zM481 1260v24h295v-24h-295 zM481 1313v24h295v-24h-295zM481 1366v25h295v-25h-295zM481 1421v23h295v-23h-295zM481 1475v22h295v-22h-295zM481 1528v20h295v-20h-295zM481 1583v16v3h295v-3v-16h-295zM481 1636v2h39h219h37v-2h-295z" />
<glyph unicode="V" horiz-adv-x="1052" d="M0 1638h45h219h33l2 -8h-297zM6 1595h297l2 -18h-297zM14 1542h295l2 -20h-293zM23 1491h292l2 -23h-290zM31 1438h291l2 -25h-291zM39 1384h289l2 -22h-289zM45 1331h289l2 -24h-287zM53 1278h287l2 -25h-285zM61 1225h285l4 -27h-284zM70 1174h282l4 -29h-282zM78 1120 h280l4 -28h-280zM86 1067h279l4 -29h-279zM94 1014h277l4 -29h-277zM102 961h275l4 -29h-275zM109 907h276l2 -33h-272zM117 858h274l4 -37h-272zM125 805h272l4 -37h-270zM133 752h270l5 -37h-269zM141 698h269l4 -36h-269zM150 645h266l4 -39h-264zM156 594h266l4 -41 h-264zM164 541h264l4 -41h-262zM172 487h262l4 -41h-260zM180 434h260l4 -41h-258zM188 381h258l7 -41h-258zM197 328h256l6 -45h-256zM205 276h254l6 -47h-254zM213 223h252l6 -41l4 41h254l-8 -47h-502zM219 170h502l-8 -47h-486zM227 117h486l-8 -47h-469zM236 63h469 l-7 -47h-454zM244 10h452l-57 -389l-6 -31h-31h-262h-33l-4 31zM475 229l6 47h254l-6 -47h-254zM483 283l4 45h256l-6 -45h-254zM489 340l5 41h258l-7 -41h-256zM496 393l4 41h260l-6 -41h-258zM502 446l4 41h262l-6 -41h-260zM508 500l4 41h264l-6 -41h-262zM514 553l6 41 h262l-6 -41h-262zM520 606l4 39h267l-7 -39h-264zM526 662l6 36h267l-6 -36h-267zM535 715l4 37h268l-6 -37h-266zM541 768l4 37h270l-6 -37h-268zM547 821l4 37h272l-6 -37h-270zM553 874l4 33h272l-4 -33h-272zM559 932l4 29h275l-4 -29h-275zM565 985l4 29h277l-4 -29 h-277zM571 1038l4 29h279l-4 -29h-279zM578 1092l4 28h280l-4 -28h-280zM584 1145l4 29h282l-4 -29h-282zM590 1198l4 27h283l-5 -27h-282zM598 1253l2 25h285l-4 -25h-283zM604 1307l2 24h287l-4 -24h-285zM610 1362l2 22h289l-4 -22h-287zM616 1413l2 25h291l-4 -25h-289z M623 1468l2 23h293l-5 -23h-290zM629 1522l2 20h293l-2 -20h-293zM635 1577l2 18h295v-2l-2 -16h-295zM641 1630l2 8h33h219h45l-2 -8h-297z" />
<glyph unicode="W" horiz-adv-x="1476" d="M0 1636v9h43h203h35v-9h-281zM4 1595v7h281l2 -19h-281zM12 1548h279l2 -20h-279zM18 1497h277l4 -22h-276zM27 1444h274l4 -23h-274zM35 1391h272l2 -25h-272zM41 1337h272l2 -24h-270zM49 1284h270l3 -24h-269zM57 1231h269l2 -27h-267zM63 1180h267l4 -29h-266z M72 1126h264l4 -30h-264zM80 1073h262l4 -31h-262zM88 1020h260l4 -31h-260zM94 967h260l2 -31h-258zM102 911h258l2 -32h-256zM111 862h254l4 -37h-254zM117 809h254l4 -37h-252zM125 756h252l4 -37h-250zM133 700h250l4 -34h-250zM141 647h248l4 -39h-248zM147 598h246 l6 -43h-245zM156 543h514l-4 -41h-504zM164 489h500l-5 -40h-489zM170 436h487l-4 -41h-477zM178 383h473l-4 -41h-463zM186 330h461l-6 -45h-448zM193 279h448l-6 -48h-434zM201 225h434l-6 -47h-422zM209 172h420l-4 -47h-410zM217 119h406l-5 -47h-395zM223 66h393 l-4 -48h-381zM231 12h381l-43 -391l-6 -31h-33h-204h-35l-4 33zM401 555l7 43h268l-4 -43h-271zM410 608l6 39h266l-4 -39h-268zM420 666l4 34h508l4 -34h-516zM428 719l6 37h488l6 -37h-500zM436 772l6 37h471l7 -37h-484zM444 825l7 37h454l6 -37h-467zM453 879l6 32h438 l6 -32h-450zM463 936l4 31h422l4 -31h-430zM471 989l4 31h406l4 -31h-414zM479 1042l4 31h389l5 -31h-398zM487 1096l5 30h372l4 -30h-381zM496 1151l6 29h352l6 -29h-364zM504 1204l4 27h338l6 -27h-348zM514 1260l4 24h320l4 -24h-328zM522 1313l4 24h303l5 -24h-312z M530 1366l5 25h286l4 -25h-295zM539 1421l4 23h270l4 -23h-278zM547 1475l4 22h254l4 -22h-262zM557 1528l2 20h238l2 -20h-242zM565 1583l2 19h221l3 -19h-226zM573 1636l2 9h33h166h6l2 -9h-209zM684 647h256l6 -39h-258zM690 598h258l6 -43h-258zM696 543h260v-8l2 8h248 l-4 -41h-500zM705 489h495l-6 -40h-485zM711 436h481l-6 -41h-469zM717 383h469l-6 -41h-457zM725 330h453l-7 -45h-442zM731 279h440l-6 -48h-430zM737 225h426l-6 -47h-414zM743 172h414l-8 -47h-399zM750 119h399l-6 -47h-387zM758 66h383l-6 -48h-371zM764 12h371 l-54 -389l-4 -33h-33h-194h-33l-4 33zM961 555l4 43h249l-6 -43h-247zM967 608l4 39h250l-4 -39h-250zM973 666l4 34h252l-4 -34h-252zM979 719l4 37h252l-4 -37h-252zM985 772l4 37h254l-4 -37h-254zM991 825l4 37h256l-6 -37h-254zM997 879l4 32h256l-4 -32h-256z M1004 936l4 31h258l-4 -31h-258zM1010 989l4 31h258l-4 -31h-258zM1016 1042l4 31h260l-4 -31h-260zM1022 1096l4 30h260l-4 -30h-260zM1028 1151l4 29h262l-4 -29h-262zM1034 1204l4 27h262l-4 -27h-262zM1042 1260l2 24h265l-4 -24h-263zM1049 1313l2 24h264l-2 -24h-264z M1055 1366l2 25h266l-4 -25h-264zM1061 1421l2 23h268l-4 -23h-266zM1067 1475l2 22h268l-2 -22h-268zM1073 1528l2 20h268l-2 -20h-268zM1079 1583l2 19h271v-7l-2 -12h-271zM1085 1636v9h35h213h23v-9h-271z" />
<glyph unicode="X" horiz-adv-x="1005" d="M0 -410l14 50l109 372h291l-107 -393l-8 -29h-29h-219h-51zM0 1638v4h307h2v-4h-309zM10 1602h309l5 -19h-308l-2 6zM27 1548h307l6 -20h-305zM43 1497h305l6 -22h-305zM59 1444h303l7 -23h-303zM76 1391h301l6 -25h-301zM92 1337h299l8 -24h-301zM109 1284h299l6 -24 h-299zM125 18l14 48h289l-14 -48h-289zM125 1231h297l6 -27h-295zM139 1180h295l8 -29h-292zM141 72l13 47h288l-14 -47h-287zM156 125l14 47h287l-15 -47h-286zM156 1126h295l8 -30h-293zM172 178l14 47h537l12 -47h-266l-4 25l-8 -25h-285zM172 1073h567l-8 -31h-549z M188 231l13 48h508l14 -48h-535zM188 1020h537l-8 -31h-518zM203 285l12 45h481l13 -45h-506zM205 967h506l-9 -31h-489zM219 342l12 41h451l12 -41h-475zM221 911h473l-8 -32h-455zM236 395l12 41h420l12 -41h-444zM238 862h442l-10 -37h-422zM250 449l12 40h393l11 -40 h-416zM252 809h414l-11 -37h-391zM266 502l13 41h362l10 -41h-385zM268 756h381l-8 -37h-360zM283 555l12 43h332l10 -43h-354zM285 700h350l-10 -34h-328zM297 608l8 29l-4 10h320l-5 -10l7 -29h-326zM467 1096l6 30h283l-8 -30h-281zM471 172h266l13 -47h-271zM479 1151 l6 29h285l-8 -29h-283zM481 119h271l12 -47h-272zM492 66h274l12 -48h-276zM492 1204l6 27h286l-6 -27h-286zM504 12h276l97 -374l12 -48h-49h-219h-31l-6 31zM504 1260l6 24h291l-8 -24h-289zM516 1313l6 24h293l-6 -24h-293zM528 1366l7 25h294l-6 -25h-295zM541 1421 l6 23h299l-6 -23h-299zM553 1475l6 22h301l-6 -22h-301zM565 1528l4 20h305l-6 -20h-303zM578 1583l4 19h309l-4 -13l-2 -6h-307zM590 1638l2 7h309v-7h-311z" />
<glyph unicode="Y" horiz-adv-x="989" d="M0 1638h51h230h28h-309zM10 1602h309l5 -19h-308l-2 6zM27 1548h305l6 -20h-305zM41 1497h305l6 -22h-305zM57 1444h301l7 -23h-302zM72 1391h301l6 -25h-299zM88 1337h299l6 -24h-299zM104 1284h297l7 -24h-297zM119 1231h295l8 -27h-295zM133 1180h295l8 -29h-293z M150 1126h290l9 -30h-291zM166 1073h289l8 -29l6 29h283l-9 -31h-569zM180 1020h557l-6 -31h-543zM197 967h528l-8 -31h-512zM211 911h500l-9 -32h-481zM227 862h469l-8 -37h-450zM242 809h442l-10 -37h-422zM258 756h412l-11 -37h-391zM272 700h383l-10 -34h-360zM289 647 h352l-10 -39h-330zM303 598h326l-11 -43h-303zM319 12h295v-385v-37h-36h-220h-39v37v385zM319 18v48h295v-48h-295zM319 72v47h295v-47h-295zM319 125v47h295v-47h-295zM319 178v47h295v-47h-295zM319 231v48h295v-48h-295zM319 285v45h295v-45h-295zM319 342v41h295v-41 h-295zM319 395v41h295v-41h-295zM319 449v40h295v-40h-295zM319 502v41h295v-41h-295zM473 1096l6 30h287l-8 -30h-285zM485 1151l7 29h288l-8 -29h-287zM496 1204l6 27h291l-7 -27h-290zM508 1260l6 24h293l-6 -24h-293zM520 1313l4 24h297l-6 -24h-295zM530 1366l7 25h297 l-7 -25h-297zM543 1421l6 23h299l-6 -23h-299zM555 1475l4 22h303l-6 -22h-301zM565 1528l4 20h305l-4 -20h-305zM578 1583l4 19h307l-2 -11l-2 -8h-307zM590 1638h31h229h49h-309z" />
<glyph unicode="Z" horiz-adv-x="931" d="M0 -102l2 6l39 108h315l-45 -127h471h39v-37v-221v-37h-39h-743h-39v37v264v7zM0 1366v14v11h821v-25h-821zM0 1421v23h821v-23h-821zM0 1475v22h821v-22h-821zM0 1528v20h821v-20h-821zM0 1583v16v3h821v-3v-16h-821zM0 1638h39h743h39h-821zM43 18l16 48h316l-17 -48 h-315zM61 72l17 47h315l-16 -47h-316zM80 125l16 47h316l-17 -47h-315zM98 178l19 47h313l-16 -47h-316zM119 231l16 48h316l-19 -48h-313zM137 285l15 45h315l-14 -45h-316zM158 342l14 41h315l-16 -41h-313zM176 395l14 41h316l-14 -41h-316zM195 449l14 40h315l-14 -40 h-315zM213 502l14 41h316l-15 -41h-315zM231 555l17 43h313l-14 -43h-316zM252 608l12 39h316l-15 -39h-313zM270 666l13 34h315l-12 -34h-316zM291 719l12 37h315l-14 -37h-313zM309 772l13 37h315l-12 -37h-316zM328 825l12 37h315l-12 -37h-315zM346 879l12 32h316 l-12 -32h-316zM367 936l10 31h315l-10 -31h-315zM385 989l10 31h316l-11 -31h-315zM403 1042l11 31h315l-10 -31h-316zM424 1096l10 30h316l-13 -30h-313zM442 1151l11 29h315l-10 -29h-316zM461 1204l10 27h315l-10 -27h-315zM481 1260l8 24h316l-8 -24h-316zM500 1313 l8 24h313v-6l-2 -6l-4 -12h-315z" />
<glyph unicode="[" horiz-adv-x="438" d="M0 -371v1970v39h39h258v-153h-104v-1741l106 -2v-152h-260h-39v39z" />
<glyph unicode="\" horiz-adv-x="618" d="M-8 1638h37h116h39l6 -39l328 -1970l8 -47h-39h-116h-37l-8 47l-328 1970z" />
<glyph unicode="]" horiz-adv-x="438" d="M0 -258l106 2v1741h-104v153h258h39v-39v-1970v-39h-39h-260v152z" />
<glyph unicode="^" horiz-adv-x="860" d="M39 225l387 516l356 -526z" />
<glyph unicode="_" horiz-adv-x="1128" d="M-10 -188h30h365h31h172h30h365h31v-31v-152v-30h-31h-365h-30h-172h-31h-365h-30v30v152v31z" />
<glyph unicode="`" horiz-adv-x="888" d="M72 2009h254l159 -262h-174z" />
<glyph unicode="a" horiz-adv-x="888" d="M0 -373v1612q0 129 30.5 211t79 128t107.5 63.5t117 17.5h86q57 0 116.5 -17.5t107.5 -63.5t79 -128t31 -211v-1612v-37h-37h-213h-37v37v1014h-33h-115h-32v-1014v-37h-37h-213h-37v37zM287 932h82h18h80v393q0 29 -10.5 38t-36.5 9h-86q-29 0 -38 -9t-9 -38v-393z" />
<glyph unicode="b" horiz-adv-x="894" d="M0 -371v1970v39h39h418q51 0 105 -13t97 -51t71 -105.5t28 -174.5v-313q0 -51 -21.5 -106.5t-85.5 -90.5q63 -35 85 -90t22 -106v-654q0 -106 -28 -173.5t-71 -105.5t-97 -51.5t-105 -13.5h-418h-39v39zM295 -115h119q29 0 39 10.5t10 38.5v654q0 29 -34 39t-60 10h-74 v-752zM295 918h70q35 4 66.5 19t31.5 44v313q0 29 -34 39t-60 10h-74v-425z" />
<glyph unicode="c" horiz-adv-x="882" d="M-4 16v1196q0 135 31.5 220.5t83 133.5t113 65.5t120.5 17.5h88q59 0 121.5 -17.5t113 -65.5t82 -133t31.5 -221v-331v-37h-37h-221h-39v37v419q0 29 -11 39.5t-40 10.5h-88q-29 0 -39 -10.5t-10 -39.5v-1372q0 -29 10 -40t39 -11h88q29 0 40 11.5t11 39.5v267v36h39h221 h37v-36v-179q0 -135 -31.5 -220t-82 -133t-112.5 -65.5t-122 -17.5h-88q-59 0 -120.5 17.5t-113 65.5t-83 133t-31.5 220z" />
<glyph unicode="d" horiz-adv-x="915" d="M0 -371v1970v39h39h438q51 0 104.5 -13t96.5 -51t70.5 -105.5t27.5 -174.5v-1360q0 -106 -27.5 -173.5t-70.5 -105.5t-96.5 -51.5t-104.5 -13.5h-438h-39v39zM295 -115l117 -2q51 0 60 18.5t9 32.5v1360q0 14 -9 31.5t-60 17.5h-117v-1458z" />
<glyph unicode="e" horiz-adv-x="802" d="M0 -371v1970v39h39h649h12v-39v-219v-39h-12h-393v-417h342h39v-39v-226v-36h-39h-342v-738h393h12v-37v-219v-39h-12h-649h-39v39z" />
<glyph unicode="f" horiz-adv-x="811" d="M0 -371v1970v39h39l661 -2v-37v-219v-39h-24h-381v-419h342h39v-37v-226v-36h-39h-342v-994v-39h-39h-217h-39v39z" />
<glyph unicode="g" horiz-adv-x="907" d="M0 23v1183q0 133 31.5 217t82 132.5t111 65.5t119.5 17h88q59 0 120.5 -17t111 -65.5t81 -132.5t31.5 -217v-172h-37h-219h-39v260q0 29 -10 39t-39 10h-88q-29 0 -39 -10t-10 -39v-1360q0 -29 10 -39t39 -10h88q29 0 39 10.5t10 38.5v689h-55h-37v36v220v39h37h313h37 v-39v-1250v-39h-37h-49h-170h-39h-100h-37h-10q-57 2 -116.5 20.5t-108 66t-79 131t-30.5 215.5z" />
<glyph unicode="h" horiz-adv-x="925" d="M0 -371v1970v37h39h217h39v-37v-681h186v681v37h37l219 2h39v-39v-1970v-39h-39l-219 2h-37v37v994h-186v-994v-37h-39h-217h-39v37z" />
<glyph unicode="i" d="M0 -371v1970v39h39h219h37v-39v-1970v-39h-37h-219h-39v39z" />
<glyph unicode="j" horiz-adv-x="923" d="M0 23v473v39h39h219h37v-39v-562q0 -29 10 -39t39 -10h88q29 0 39 10.5t10 38.5v1665v39h39h219h37v-39v-1576q0 -133 -31.5 -218.5t-81 -132.5t-110.5 -64.5t-121 -17.5h-88q-59 0 -119.5 17.5t-111 64.5t-82 132t-31.5 219z" />
<glyph unicode="k" horiz-adv-x="948" d="M0 -371v1970v39h39h219h37v-39v-518l233 535l11 22h24h219h60l-25 -53l-405 -901l12 -35l395 -1007l19 -52h-56h-219h-26l-9 25l-233 666v-652v-39h-37h-219h-39v39z" />
<glyph unicode="l" horiz-adv-x="819" d="M0 -371v1970v39h39h219h37v-39v-1714h401h37v-37v-219v-39h-37h-657h-39v39z" />
<glyph unicode="m" horiz-adv-x="1320" d="M0 -371v1970v39h39h287h55l8 -28l205 -1143l188 1141l6 30h82h265h36v-39v-1970v-39h-36h-220h-38v39v1110l-144 -1118l-6 -31h-31h-219h-33l-6 31l-143 1118v-1110v-39h-37h-219h-39v39z" />
<glyph unicode="n" horiz-adv-x="1013" d="M0 -371v1970v39h39h262h31l6 -28l231 -1104v1093v39h39h219h37v-39v-1970v-39h-37h-264h-28l-9 29l-231 1012v-1002v-39h-37h-219h-39v39z" />
<glyph unicode="o" horiz-adv-x="909" d="M-4 16v1196q0 135 31.5 220.5t83 133.5t113 65.5t120.5 17.5h88q59 0 121.5 -17.5t113 -65.5t82 -133t31.5 -221v-1196q0 -135 -31.5 -220t-82 -133t-112.5 -65.5t-122 -17.5h-88q-59 0 -120.5 17.5t-113 65.5t-83 133t-31.5 220zM295 -72q0 -29 10 -39t39 -10h88 q29 0 40 10.5t11 38.5v1372q0 29 -11 39.5t-40 10.5h-88q-29 0 -39 -10.5t-10 -39.5v-1372z" />
<glyph unicode="p" horiz-adv-x="870" d="M0 -371v1970v39h39h438q51 0 104.5 -13t96.5 -51t70.5 -105.5t27.5 -174.5v-374q0 -106 -27.5 -174t-70.5 -106t-96.5 -51.5t-104.5 -13.5h-182v-946v-39h-37h-219h-39v39zM295 870l117 -2q51 0 60 17.5t9 34.5v374q0 14 -9 31.5t-60 17.5h-117v-473z" />
<glyph unicode="q" horiz-adv-x="874" d="M-41 33v1188q0 135 32 220t82 133t111.5 65.5t120.5 17.5h88q59 0 120.5 -17.5t112 -65.5t82 -133t31.5 -220v-1188q0 -158 -43 -248t-106 -133l127 -285h-338l-84 230q-59 2 -118.5 20t-108 66.5t-79 132.5t-30.5 217zM256 -55q0 -10 1 -21.5t17 -11.5h35h121 q10 0 12 11t2 22v1364q0 29 -11 40t-40 11h-88q-29 0 -39 -11.5t-10 -39.5v-1364z" />
<glyph unicode="r" horiz-adv-x="870" d="M0 -371v1970v39h39h393q51 0 104.5 -13t97.5 -51t71.5 -105.5t27.5 -174.5v-362q0 -55 -24.5 -112.5t-96.5 -92.5q59 -45 90 -118.5t31 -147.5v-871h-295v955q0 29 -10 39t-39 10h-94v-965v-39h-37h-219h-39v39zM295 874l74 -2q51 0 60 15.5t9 32.5v374q0 14 -9 31.5 t-60 17.5h-74v-469z" />
<glyph unicode="s" horiz-adv-x="894" d="M-4 -72v222v38h2h37h221h39v-36v-222q0 -18 20.5 -34.5t69.5 -20.5q59 2 78.5 16.5t19.5 38.5v174v23v4q0 31 -10 69t-20 52q-59 96 -127 190.5t-144 190.5q-186 231 -186 379v221q0 135 31.5 220t83 133t113 65.5t120.5 17.5h88q59 0 121.5 -17.5t113 -65.5t82 -133 t31.5 -220v-133v-39h-39h-221h-37v37v221q0 4 -3 12t-12 16.5t-27.5 14.5t-49.5 6q-55 0 -75.5 -16.5t-20.5 -32.5v-197q0 -6 5 -39.5t38 -87.5q55 -92 120.5 -180t137.5 -178q184 -229 184 -379v-330q0 -172 -87 -260t-261 -88h-88q-172 0 -260 88t-88 260z" />
<glyph unicode="t" horiz-adv-x="942" d="M0 1343v37v219v39h39l743 -2h39v-37v-219v-37h-39h-225v-1714v-39h-37h-219h-39v39v1714h-223h-39z" />
<glyph unicode="u" horiz-adv-x="923" d="M0 23v1576v39h39h219h37v-39v-1665q0 -29 10 -39t39 -10h88q29 0 39 10.5t10 38.5v1665v39h39h219h37v-39v-1576q0 -133 -31.5 -218.5t-81 -132.5t-110.5 -64.5t-121 -17.5h-88q-59 0 -119.5 17.5t-111 64.5t-82 132t-31.5 219z" />
<glyph unicode="v" horiz-adv-x="1052" d="M0 1638h45h219h33l4 -30l170 -1426l168 1426l4 30h33h219h45l-8 -45l-293 -1972l-6 -31h-31h-262h-33l-4 31z" />
<glyph unicode="w" horiz-adv-x="1474" d="M0 1638h43h203h35l4 -34l114 -1059l170 1061l4 32h33h168h8l4 -32l170 -1071l125 1071l4 32h35h193h43l-4 -43l-271 -1970l-4 -35h-33h-194h-33l-4 33l-131 1039l-113 -1041l-6 -31h-33h-204h-35l-4 35l-283 1970z" />
<glyph unicode="x" horiz-adv-x="1005" d="M0 -410l14 50l291 997l-291 952l-14 49h51h230h28l8 -28l146 -531l121 531l6 28h31h229h51l-14 -49l-271 -954l261 -997l12 -48h-49h-219h-31l-6 31l-119 582l-158 -584l-8 -29h-29h-219h-51z" />
<glyph unicode="y" horiz-adv-x="989" d="M0 1638h51h230h28l8 -28l146 -566l121 564l6 30h31h229h49l-12 -47l-273 -1046v-916v-39h-39h-217h-39v39v914l-305 1046z" />
<glyph unicode="z" horiz-adv-x="931" d="M0 -102l2 6l508 1439h-471h-39v37v219v39h39h743h39v-39v-262v-6l-2 -6l-508 -1440h471h39v-37v-219v-39h-39h-743h-39v39v262v7z" />
<glyph unicode="{" horiz-adv-x="518" d="M0 688v57l82 68v825h297v-92l-105 -61v-1741l107 -63v-91h-299v1016z" />
<glyph unicode="|" d="M123 -453v2134v39h39h157h37v-39v-2134v-39h-37h-157h-39v39z" />
<glyph unicode="}" horiz-adv-x="483" d="M0 1548v90h299v-831l82 -82v-57l-82 -68v-1010h-297v93l104 61v1741z" />
<glyph unicode="~" horiz-adv-x="1013" d="M96 1718v8q0 82 17.5 139.5t46 93.5t63.5 51t72 15q49 0 89 -19t75 -42q29 -16 55.5 -30.5t54.5 -14.5q29 0 51.5 17.5t22.5 82.5v6h178v-6q0 -72 -23.5 -128t-58 -95t-75.5 -58.5t-78 -19.5q-49 0 -87 19.5t-69 40.5q-27 18 -51.5 31.5t-52.5 13.5q-29 0 -40.5 -21.5 t-11.5 -75.5v-8h-178z" />
<glyph unicode="&#xa1;" d="M-2 -362l20 1480v39h-2h220h36v-39l21 -1480v-37h-37h-219h-39v37zM0 1362v39v207v39h39h219h37v-39v-207v-39h-37h-219h-39z" />
<glyph unicode="&#xa2;" horiz-adv-x="878" d="M-4 16v1196q0 135 31.5 220.5t83 133.5t113 65.5t120.5 17.5h88q59 0 121.5 -17.5t113 -65.5t82 -133t31.5 -221v-331v-37h-37h-221h-39v37v419q0 29 -11 39.5t-40 10.5h-88q-29 0 -39 -10.5t-10 -39.5v-1372q0 -29 10 -40t39 -11h88q29 0 40 11.5t11 39.5v267v36h39h221 h37v-36v-179q0 -135 -31.5 -220t-82 -133t-112.5 -65.5t-122 -17.5h-88q-59 0 -120.5 17.5t-113 65.5t-83 133t-31.5 220zM268 -387h295v-113h-295v113zM268 1630v135h295v-135h-295z" />
<glyph unicode="&#xa5;" horiz-adv-x="989" d="M0 1638h51h230h28l8 -28l146 -566l121 564l6 30h31h229h49l-12 -47l-273 -1046v-916v-39h-39h-217h-39v39v914l-305 1046zM92 397v31v172v31h31h344h31h172h30h119h31v-31v-172v-31h-31h-119h-30h-172h-31h-344h-31z" />
<glyph unicode="&#xa6;" d="M123 330v39h39h157h37v-39v-783v-39h-37h-157h-39v39v783zM123 860v37v784v39h39h157h37v-39v-784v-37h-37h-157h-39z" />
<glyph unicode="&#xa8;" horiz-adv-x="614" d="M-6 1604v43h237v-45l-34 -392h-170zM283 1575v72h237v-45l-35 -392h-170l-32 387v-22z" />
<glyph unicode="&#xa9;" horiz-adv-x="1208" d="M45 655q0 117 45 221.5t122 181.5t180.5 122t221.5 45q117 0 220.5 -45t180.5 -122t122 -181.5t45 -221.5t-45 -221t-122 -181t-180.5 -122t-220.5 -45q-119 0 -222 45t-180 122t-122 181t-45 221zM455 416q0 -53 13 -87t32.5 -53.5t44 -26.5t49.5 -7h35q25 0 49 7 t43.5 26.5t33 53t13.5 87.5v71v15h-16h-88h-15v-15v-106q0 -20 -20 -21h-35q-20 0 -21 21v549q0 20 21 20h35q20 0 20 -20v-168v-14h15h88h16v14v133q0 53 -13.5 87t-33 53.5t-44 26.5t-48.5 7h-35q-25 0 -49.5 -7t-44 -26.5t-32.5 -53.5t-13 -87v-479z" />
<glyph unicode="&#xaa;" horiz-adv-x="888" d="M143 1608q0 45 17.5 85t46.5 69.5t68.5 46t84.5 16.5t86 -16.5t70 -46t46.5 -69.5t17.5 -85q0 -47 -17.5 -86t-46.5 -69t-69.5 -46t-86.5 -16q-45 0 -84.5 16t-68.5 46t-46.5 69t-17.5 86zM279 1608q0 -35 23 -58.5t58 -23.5t58.5 23.5t23.5 58.5t-23.5 58.5t-58.5 23.5 t-58 -24t-23 -58z" />
<glyph unicode="&#xab;" horiz-adv-x="790" d="M10 492l336 229l-6 -477zM397 492l338 229l-6 -477z" />
<glyph unicode="&#xac;" horiz-adv-x="948" d="M59 598v25v141v24h25h688h25v-24v-422v-25h-25h-139h-25v25v256h-524h-25z" />
<glyph unicode="&#xad;" horiz-adv-x="876" d="M31 397v31v172v31h30h365h31h172h30h119h31v-31v-172v-31h-31h-119h-30h-172h-31h-365h-30z" />
<glyph unicode="&#xae;" horiz-adv-x="430" d="M-29 1456q0 43 16.5 81t44 66.5t65.5 45t81 16.5t81 -16.5t65.5 -45t44 -66.5t16.5 -81t-16.5 -81t-44 -65.5t-65.5 -44t-81 -16.5t-81 16.5t-65.5 44t-44 65.5t-16.5 81zM125 1307h4h33h6v6v141h12q8 0 8 -8v-139h43v127q0 27 -18 39q18 10 18 30v53q0 31 -14.5 40.5 t-30.5 9.5h-57h-4v-4v-289v-6zM168 1495v68h10q10 0 10 -7v-55q0 -6 -10 -6h-10z" />
<glyph unicode="&#xaf;" horiz-adv-x="614" d="M33 1985v26h143v-29l-20 -233h-103zM207 1968v43h141v-29l-20 -233h-103l-18 231v-12zM379 1968v43h141v-29l-20 -233h-103l-18 231v-12z" />
<glyph unicode="&#xb0;" horiz-adv-x="888" d="M233 1894q0 63 42.5 106.5t105.5 43.5t106 -43t43 -107q0 -63 -43 -106t-106 -43t-105.5 43t-42.5 106zM326 1894q0 -23 16 -39t39 -16q25 0 41 16.5t16 38.5q0 23 -16 39.5t-41 16.5q-23 0 -39 -16.5t-16 -39.5z" />
<glyph unicode="&#xb1;" horiz-adv-x="825" d="M31 123v31v79v31h30h365h31h172h30h64h31v-31v-79v-31h-31h-64h-30h-172h-31h-365h-30zM35 705v20v121v22h22h256v256v21h21h121h20v-21v-256h256h21v-22v-121v-20h-21h-256v-256v-21h-20h-121h-21v21v256h-256h-22z" />
<glyph unicode="&#xb2;" horiz-adv-x="675" d="M51 1311v45v2v57q0 20 29 60q29 31 41 57q4 4 4 6t2 6q0 4 2 6v31q0 2 -2 6t-12 4q-8 0 -15 -6q-2 -2 -2 -4v-39h-47v27q0 43 18.5 56t36.5 13h15q18 0 36.5 -13t18.5 -56v-35q0 -23 -31 -59q-10 -16 -21.5 -31t-21.5 -31q-4 -4 -4 -14v-33q0 -6 8 -8h70v-47h-55h-15h-55 z" />
<glyph unicode="&#xb3;" horiz-adv-x="258" d="M41 1311v6v41h51h14q8 0 9 8v104q0 8 -15 9h-8h-26v45h22h12q14 0 15 10v49q0 8 -15 8h-8h-4h-47v41v6h6h68q16 0 31.5 -10t15.5 -45v-49q0 -8 -3 -17.5t-14 -13.5q10 -6 13.5 -15t3.5 -18v-104q0 -35 -15.5 -45t-31.5 -10h-68h-6z" />
<glyph unicode="&#xb4;" d="M-18 1350v284h309v-256l-129 -297h-121l78 269h-137z" />
<glyph unicode="&#xb5;" horiz-adv-x="923" d="M0 23v1576v39h39h219h37v-39v-1665q0 -29 10 -39t39 -10h88q29 0 39 10.5t10 38.5v1665v39h39h219h37v-39v-1576q0 -133 -31.5 -218.5t-81 -132.5t-110.5 -64.5t-121 -17.5h-88q-59 0 -119.5 17.5t-111 64.5t-82 132t-31.5 219zM0 -535v1971v39h39h219h37v-39v-1971v-38 h-37h-219h-39v38z" />
<glyph unicode="&#xb6;" horiz-adv-x="870" d="M20 920v374q0 106 28 174t72 106t97 51t105 13h233h37v-39v-1970v-39h-37h-14h-39v39v946h-180q-51 0 -104.5 13.5t-97.5 51.5t-72 106t-28 174zM696 -371v-39h39h15h36v39v1970v39h-36h-15h-39v-39v-1970z" />
<glyph unicode="&#xb7;" horiz-adv-x="571" d="M-16 485l32 33l185 187l32 32l33 -32l176 -179l33 -30l-33 -33l-184 -187l-33 -32l-32 32l-177 179z" />
<glyph unicode="&#xb8;" horiz-adv-x="282" d="M39 -123h151v-125l-63 -147h-59l38 133h-67v139z" />
<glyph unicode="&#xb9;" horiz-adv-x="249" d="M47 1589v6v35v6h2h17h6h34h5h2v-6v-35v-6v-274v-6h-7h-34h-6v6v274h-17h-2z" />
<glyph unicode="&#xba;" horiz-adv-x="888" d="M143 1608q0 45 17.5 85t46.5 69.5t68.5 46t84.5 16.5t86 -16.5t70 -46t46.5 -69.5t17.5 -85q0 -47 -17.5 -86t-46.5 -69t-69.5 -46t-86.5 -16q-45 0 -84.5 16t-68.5 46t-46.5 69t-17.5 86zM279 1608q0 -35 23 -58.5t58 -23.5t58.5 23.5t23.5 58.5t-23.5 58.5t-58.5 23.5 t-58 -24t-23 -58z" />
<glyph unicode="&#xbb;" horiz-adv-x="790" d="M10 721l336 -229l-330 -248zM397 721l338 -229l-329 -248z" />
<glyph unicode="&#xbc;" horiz-adv-x="675" d="M68 1589v6v35v6h2h16h6h35h4h2v-6v-35v-6v-274v-6h-6h-35h-6v6v274h-16h-2zM102 1180l23 37l250 428l18 28h31h10h31l-19 -28l-249 -428l-23 -37h-29h-12h-31zM414 1362v6v150v6h6h35h6v-6v-109h28v109v6h7h34h7v-6v-316v-6h-7h-34h-7v6v160h-28h-6h-35h-6z" />
<glyph unicode="&#xbd;" horiz-adv-x="675" d="M68 1589v6v35v6h2h16h6h35h4h2v-6v-35v-6v-274v-6h-6h-35h-6v6v274h-16h-2zM102 1180l23 37l250 428l18 28h31h10h31l-19 -28l-249 -428l-23 -37h-29h-12h-31zM412 1200v45v2v58q0 25 28 59q12 14 21.5 27.5t19.5 29.5q2 4 4 6.5t2 6.5v6v28q0 4 -1 8.5t-11 4.5 q-12 0 -14 -5.5t-2 -7.5v-36h-47v26q0 43 17 56.5t38 13.5h14q18 0 36 -13.5t18 -56.5v-35q0 -25 -29 -59q-25 -30 -43 -61q-4 -4 -4 -17v-31q0 -6 8 -8h68v-47h-54h-14h-55z" />
<glyph unicode="&#xbe;" horiz-adv-x="675" d="M41 1311v6v41h51h14q8 0 9 8v104q0 8 -15 9h-8h-26v45h22h12q14 0 15 10v49q0 8 -15 8h-8h-4h-47v41v6h6h68q16 0 31.5 -10t15.5 -45v-49q0 -8 -3 -17.5t-14 -13.5q10 -6 13.5 -15t3.5 -18v-104q0 -35 -15.5 -45t-31.5 -10h-68h-6zM102 1180l23 37l250 428l18 28h31h10 h31l-19 -28l-249 -428l-23 -37h-29h-12h-31zM414 1362v6v150v6h6h35h6v-6v-109h28v109v6h7h34h7v-6v-316v-6h-7h-34h-7v6v160h-28h-6h-35h-6z" />
<glyph unicode="&#xbf;" horiz-adv-x="927" d="M47 82q0 82 11.5 156.5t37 147.5t65.5 146.5t99 151.5q47 61 69.5 113.5t30 99.5t6.5 94t-1 99v24v23.5t-1.5 35t-1.5 58.5l275 4q0 -43 1 -66.5t1 -38v-24.5v-29q0 -61 1 -115.5t-7 -108.5t-30.5 -110.5t-67.5 -119.5q-53 -74 -88 -142.5t-56.5 -135t-31 -136.5 t-9.5 -148q0 -53 1 -92t10.5 -65.5t31 -38.5t64.5 -12t67.5 12t36.5 38.5t15.5 65.5t3.5 92v121h286v-100q0 -248 -95 -376t-322 -128q-115 0 -192 33t-123 96.5t-66.5 157.5t-20.5 217zM354 1376v291h293v-291h-293z" />
<glyph unicode="&#xc0;" horiz-adv-x="886" d="M0 8h287v-381v-37h-37h-213h-37v37v381zM0 14v47h287v-47h-287zM0 68v47h287v-47h-287zM0 121v47h287v-47h-287zM0 174v47h287v-47h-287zM0 227v47h287v-47h-287zM0 281v45h287v-45h-287zM0 336v43h287v-43h-287zM0 389v43h287v-43h-287zM0 442v43h287v-43h-287zM0 496 v43h287v-43h-287zM0 549v41h287v-41h-287zM0 602v39h754v-39h-285v21h-35h-115h-32v-21h-287zM0 659v35h754v-35h-754zM0 713v35h754v-35h-754zM0 766v35h754v-35h-754zM0 817v37h754v-37h-754zM0 870v33h754v-33h-754zM0 928v28h287v-28h-287zM0 981v29h287v-29h-287z M0 1034v29h287v-29h-287zM0 1087v29h287v-29h-287zM0 1141v28h287v-28h-287zM0 1194v27h287v-27h-287zM0 1249q0 6 1 12.5t1 12.5h285v-25h-287zM4 1303q0 6 1 12t1 12h283q-2 -6 -2 -20v-4h-283zM10 1356q4 16 6 22h723q4 -12 4 -22h-733zM23 1409q4 16 8 23h694 q2 -6 6 -23h-708zM41 1462q8 16 12 23h649q2 -6 11 -23h-672zM51 2009h254l160 -262h-174zM72 1516q4 4 7 10t7 10h584q4 -4 7 -10t7 -10h-612zM121 1571q6 6 22 18h469q6 -6 23 -18h-514zM205 1620q18 8 35.5 11t35.5 7h201q18 -4 36.5 -7t37.5 -11h-346zM467 1327h281 q2 -6 2 -12t2 -12h-283v4q0 6 -1 11t-1 9zM469 8h285v-381v-37h-37h-211h-37v37v381zM469 14v47h285v-47h-285zM469 68v47h285v-47h-285zM469 121v47h285v-47h-285zM469 174v47h285v-47h-285zM469 227v47h285v-47h-285zM469 281v45h285v-45h-285zM469 336v43h285v-43h-285z M469 389v43h285v-43h-285zM469 442v43h285v-43h-285zM469 496v43h285v-43h-285zM469 549v41h285v-41h-285zM469 928v28h285v-28h-285zM469 981v29h285v-29h-285zM469 1034v29h285v-29h-285zM469 1087v29h285v-29h-285zM469 1141v28h285v-28h-285zM469 1194v27h285v-27h-285z M469 1249v25h285v-25h-285z" />
<glyph unicode="&#xc1;" horiz-adv-x="886" d="M0 8v-381v-37h37h213h37v37v381h-287zM0 14h287v47h-287v-47zM0 68h287v47h-287v-47zM0 121h287v47h-287v-47zM0 174h287v47h-287v-47zM0 227h287v47h-287v-47zM0 281h287v45h-287v-45zM0 336h287v43h-287v-43zM0 389h287v43h-287v-43zM0 442h287v43h-287v-43zM0 496h287 v43h-287v-43zM0 549h287v41h-287v-41zM0 602h287v21h32h115h35v-21h285v39h-754v-39zM0 659h754v35h-754v-35zM0 713h754v35h-754v-35zM0 766h754v35h-754v-35zM0 817h754v37h-754v-37zM0 870h754v33h-754v-33zM0 928h287v28h-287v-28zM0 981h287v29h-287v-29zM0 1034h287 v29h-287v-29zM0 1087h287v29h-287v-29zM0 1141h287v28h-287v-28zM0 1194h287v27h-287v-27zM0 1249h287v25h-285q0 -6 -1 -12.5t-1 -12.5zM4 1303h283v4q0 14 2 20h-283q0 -6 -1 -12t-1 -12zM10 1356h733q0 10 -4 22h-723q-2 -6 -6 -22zM23 1409h708q-4 16 -6 23h-694 q-4 -7 -8 -23zM41 1462h672q-8 16 -11 23h-649q-4 -7 -12 -23zM72 1516h612q-4 4 -7 10t-7 10h-584q-4 -4 -7 -10t-7 -10zM121 1571h514q-16 12 -23 18h-469q-16 -12 -22 -18zM205 1620h346q-18 8 -36.5 11t-37.5 7h-201q-18 -4 -35.5 -7t-35.5 -11zM317 1747l160 262h254 l-239 -262h-175zM467 1327q0 -4 1 -9t1 -11v-4h283q-2 6 -2 12t-2 12h-281zM469 8v-381v-37h37h211h37v37v381h-285zM469 14h285v47h-285v-47zM469 68h285v47h-285v-47zM469 121h285v47h-285v-47zM469 174h285v47h-285v-47zM469 227h285v47h-285v-47zM469 281h285v45h-285 v-45zM469 336h285v43h-285v-43zM469 389h285v43h-285v-43zM469 442h285v43h-285v-43zM469 496h285v43h-285v-43zM469 549h285v41h-285v-41zM469 928h285v28h-285v-28zM469 981h285v29h-285v-29zM469 1034h285v29h-285v-29zM469 1087h285v29h-285v-29zM469 1141h285v28h-285 v-28zM469 1194h285v27h-285v-27zM469 1249h285v25h-285v-25z" />
<glyph unicode="&#xc2;" horiz-adv-x="886" d="M0 8v-381v-37h37h213h37v37v381h-287zM0 14h287v47h-287v-47zM0 68h287v47h-287v-47zM0 121h287v47h-287v-47zM0 174h287v47h-287v-47zM0 227h287v47h-287v-47zM0 281h287v45h-287v-45zM0 336h287v43h-287v-43zM0 389h287v43h-287v-43zM0 442h287v43h-287v-43zM0 496h287 v43h-287v-43zM0 549h287v41h-287v-41zM0 602h287v21h32h115h35v-21h285v39h-754v-39zM0 659h754v35h-754v-35zM0 713h754v35h-754v-35zM0 766h754v35h-754v-35zM0 817h754v37h-754v-37zM0 870h754v33h-754v-33zM0 928h287v28h-287v-28zM0 981h287v29h-287v-29zM0 1034h287 v29h-287v-29zM0 1087h287v29h-287v-29zM0 1141h287v28h-287v-28zM0 1194h287v27h-287v-27zM0 1249h287v25h-285q0 -6 -1 -12.5t-1 -12.5zM4 1303h283v4q0 14 2 20h-283q0 -6 -1 -12t-1 -12zM10 1356h733q0 10 -4 22h-723q-2 -6 -6 -22zM23 1409h708q-4 16 -6 23h-694 q-4 -7 -8 -23zM41 1462h672q-8 16 -11 23h-649q-4 -7 -12 -23zM68 1755l200 250h221l199 -250h-211l-100 123l-98 -123h-211zM72 1516h612q-4 4 -7 10t-7 10h-584q-4 -4 -7 -10t-7 -10zM121 1571h514q-16 12 -23 18h-469q-16 -12 -22 -18zM205 1620h346q-18 8 -36.5 11 t-37.5 7h-201q-18 -4 -35.5 -7t-35.5 -11zM467 1327q0 -4 1 -9t1 -11v-4h283q-2 6 -2 12t-2 12h-281zM469 8v-381v-37h37h211h37v37v381h-285zM469 14h285v47h-285v-47zM469 68h285v47h-285v-47zM469 121h285v47h-285v-47zM469 174h285v47h-285v-47zM469 227h285v47h-285 v-47zM469 281h285v45h-285v-45zM469 336h285v43h-285v-43zM469 389h285v43h-285v-43zM469 442h285v43h-285v-43zM469 496h285v43h-285v-43zM469 549h285v41h-285v-41zM469 928h285v28h-285v-28zM469 981h285v29h-285v-29zM469 1034h285v29h-285v-29zM469 1087h285v29h-285 v-29zM469 1141h285v28h-285v-28zM469 1194h285v27h-285v-27zM469 1249h285v25h-285v-25z" />
<glyph unicode="&#xc3;" horiz-adv-x="886" d="M0 8h287v-381v-37h-37h-213h-37v37v381zM0 14v47h287v-47h-287zM0 68v47h287v-47h-287zM0 121v47h287v-47h-287zM0 174v47h287v-47h-287zM0 227v47h287v-47h-287zM0 281v45h287v-45h-287zM0 336v43h287v-43h-287zM0 389v43h287v-43h-287zM0 442v43h287v-43h-287zM0 496 v43h287v-43h-287zM0 549v41h287v-41h-287zM0 602v39h754v-39h-285v21h-35h-115h-32v-21h-287zM0 659v35h754v-35h-754zM0 713v35h754v-35h-754zM0 766v35h754v-35h-754zM0 817v37h754v-37h-754zM0 870v33h754v-33h-754zM0 928v28h287v-28h-287zM0 981v29h287v-29h-287z M0 1034v29h287v-29h-287zM0 1087v29h287v-29h-287zM0 1141v28h287v-28h-287zM0 1194v27h287v-27h-287zM0 1249q0 6 1 12.5t1 12.5h285v-25h-287zM4 1303q0 6 1 12t1 12h283q-2 -6 -2 -20v-4h-283zM10 1356q4 16 6 22h723q4 -12 4 -22h-733zM23 1409q4 16 8 23h694 q2 -6 6 -23h-708zM35 1718v8q0 82 17.5 139.5t46 93.5t63.5 51t71 15q49 0 89 -19t75 -42q29 -16 55.5 -30.5t55.5 -14.5t51.5 17.5t22.5 82.5v6h178v-6q0 -72 -23.5 -128t-58.5 -95t-76 -58.5t-78 -19.5q-49 0 -87 19.5t-68 40.5q-27 18 -51.5 31.5t-53.5 13.5t-40 -21.5 t-11 -75.5v-8h-178zM41 1462q8 16 12 23h649q2 -6 11 -23h-672zM72 1516q4 4 7 10t7 10h584q4 -4 7 -10t7 -10h-612zM121 1571q6 6 22 18h469q6 -6 23 -18h-514zM205 1620q18 8 35.5 11t35.5 7h201q18 -4 36.5 -7t37.5 -11h-346zM467 1327h281q2 -6 2 -12t2 -12h-283v4 q0 6 -1 11t-1 9zM469 8h285v-381v-37h-37h-211h-37v37v381zM469 14v47h285v-47h-285zM469 68v47h285v-47h-285zM469 121v47h285v-47h-285zM469 174v47h285v-47h-285zM469 227v47h285v-47h-285zM469 281v45h285v-45h-285zM469 336v43h285v-43h-285zM469 389v43h285v-43h-285z M469 442v43h285v-43h-285zM469 496v43h285v-43h-285zM469 549v41h285v-41h-285zM469 928v28h285v-28h-285zM469 981v29h285v-29h-285zM469 1034v29h285v-29h-285zM469 1087v29h285v-29h-285zM469 1141v28h285v-28h-285zM469 1194v27h285v-27h-285zM469 1249v25h285v-25h-285 z" />
<glyph unicode="&#xc4;" horiz-adv-x="886" d="M0 8h287v-381v-37h-37h-213h-37v37v381zM0 14v47h287v-47h-287zM0 68v47h287v-47h-287zM0 121v47h287v-47h-287zM0 174v47h287v-47h-287zM0 227v47h287v-47h-287zM0 281v45h287v-45h-287zM0 336v43h287v-43h-287zM0 389v43h287v-43h-287zM0 442v43h287v-43h-287zM0 496 v43h287v-43h-287zM0 549v41h287v-41h-287zM0 602v39h754v-39h-285v21h-35h-115h-32v-21h-287zM0 659v35h754v-35h-754zM0 713v35h754v-35h-754zM0 766v35h754v-35h-754zM0 817v37h754v-37h-754zM0 870v33h754v-33h-754zM0 928v28h287v-28h-287zM0 981v29h287v-29h-287z M0 1034v29h287v-29h-287zM0 1087v29h287v-29h-287zM0 1141v28h287v-28h-287zM0 1194v27h287v-27h-287zM0 1249q0 6 1 12.5t1 12.5h285v-25h-287zM4 1303q0 6 1 12t1 12h283q-2 -6 -2 -20v-4h-283zM10 1356q4 16 6 22h723q4 -12 4 -22h-733zM23 1409q4 16 8 23h694 q2 -6 6 -23h-708zM41 1462q8 16 12 23h649q2 -6 11 -23h-672zM72 1516q4 4 7 10t7 10h584q4 -4 7 -10t7 -10h-612zM115 1755v27v157v27h28h150h29v-27v-157v-27h-29h-150h-28zM121 1571q6 6 22 18h469q6 -6 23 -18h-514zM205 1620q18 8 35.5 11t35.5 7h201q18 -4 36.5 -7 t37.5 -11h-346zM457 1755v27v157v27h28h150h27v-27v-157v-27h-27h-150h-28zM467 1327h281q2 -6 2 -12t2 -12h-283v4q0 6 -1 11t-1 9zM469 8h285v-381v-37h-37h-211h-37v37v381zM469 14v47h285v-47h-285zM469 68v47h285v-47h-285zM469 121v47h285v-47h-285zM469 174v47h285 v-47h-285zM469 227v47h285v-47h-285zM469 281v45h285v-45h-285zM469 336v43h285v-43h-285zM469 389v43h285v-43h-285zM469 442v43h285v-43h-285zM469 496v43h285v-43h-285zM469 549v41h285v-41h-285zM469 928v28h285v-28h-285zM469 981v29h285v-29h-285zM469 1034v29h285 v-29h-285zM469 1087v29h285v-29h-285zM469 1141v28h285v-28h-285zM469 1194v27h285v-27h-285zM469 1249v25h285v-25h-285z" />
<glyph unicode="&#xc5;" horiz-adv-x="886" d="M0 8v-381v-37h37h213h37v37v381h-287zM0 14h287v47h-287v-47zM0 68h287v47h-287v-47zM0 121h287v47h-287v-47zM0 174h287v47h-287v-47zM0 227h287v47h-287v-47zM0 281h287v45h-287v-45zM0 336h287v43h-287v-43zM0 389h287v43h-287v-43zM0 442h287v43h-287v-43zM0 496h287 v43h-287v-43zM0 549h287v41h-287v-41zM0 602h287v21h32h115h35v-21h285v39h-754v-39zM0 659h754v35h-754v-35zM0 713h754v35h-754v-35zM0 766h754v35h-754v-35zM0 817h754v37h-754v-37zM0 870h754v33h-754v-33zM0 928h287v28h-287v-28zM0 981h287v29h-287v-29zM0 1034h287 v29h-287v-29zM0 1087h287v29h-287v-29zM0 1141h287v28h-287v-28zM0 1194h287v27h-287v-27zM0 1249h287v25h-285q0 -6 -1 -12.5t-1 -12.5zM4 1303h283v4q0 14 2 20h-283q0 -6 -1 -12t-1 -12zM10 1356h733q0 10 -4 22h-723q-2 -6 -6 -22zM23 1409h708q-4 16 -6 23h-694 q-4 -7 -8 -23zM41 1462h672q-8 16 -11 23h-649q-4 -7 -12 -23zM72 1516h612q-4 4 -7 10t-7 10h-584q-4 -4 -7 -10t-7 -10zM121 1571h514q-16 12 -23 18h-469q-16 -12 -22 -18zM205 1620h346q-18 8 -36.5 11t-37.5 7h-201q-18 -4 -35.5 -7t-35.5 -11zM233 1894 q0 63 42.5 106.5t105.5 43.5t106 -43t43 -107q0 -63 -43 -106t-106 -43t-105.5 43t-42.5 106zM326 1894q0 -23 16 -39t39 -16q25 0 41 16.5t16 38.5q0 23 -16 39.5t-41 16.5q-23 0 -39 -16.5t-16 -39.5zM467 1327q0 -4 1 -9t1 -11v-4h283q-2 6 -2 12t-2 12h-281zM469 8v-381 v-37h37h211h37v37v381h-285zM469 14h285v47h-285v-47zM469 68h285v47h-285v-47zM469 121h285v47h-285v-47zM469 174h285v47h-285v-47zM469 227h285v47h-285v-47zM469 281h285v45h-285v-45zM469 336h285v43h-285v-43zM469 389h285v43h-285v-43zM469 442h285v43h-285v-43z M469 496h285v43h-285v-43zM469 549h285v41h-285v-41zM469 928h285v28h-285v-28zM469 981h285v29h-285v-29zM469 1034h285v29h-285v-29zM469 1087h285v29h-285v-29zM469 1141h285v28h-285v-28zM469 1194h285v27h-285v-27zM469 1249h285v25h-285v-25z" />
<glyph unicode="&#xc6;" horiz-adv-x="1273" d="M0 -373v1612q0 129 30.5 211t79 128t107.5 63.5t117 17.5h86q57 0 116.5 -17.5t107.5 -63.5t79 -128t31 -211v-1612v-37h-37h-213h-37v37v1014h-33h-115h-32v-1014v-37h-37h-213h-37v37zM287 932h82h18h80v393q0 29 -10.5 38t-36.5 9h-86q-29 0 -38 -9t-9 -38v-393z M471 -371v1970v56h39h649h12v-56v-219v-39h-12h-393v-417h342h39v-39v-226v-36h-39h-342v-738h393h12v-37v-219v-39h-12h-651h-37v39z" />
<glyph unicode="&#xc7;" horiz-adv-x="880" d="M0 12h295v-78q0 -29 10 -39t39 -10h88q29 0 39 10.5t10 38.5v78h295q0 -131 -32.5 -213t-82 -128t-111 -63.5t-118.5 -17.5h-88q-59 0 -119.5 17.5t-109.5 63.5t-81 128t-34 213zM0 18v5v43h295v-48h-295zM0 72v49h295v-49h-295zM0 125v49h295v-49h-295zM0 180v47h295 v-47h-295zM0 233v48h295v-48h-295zM0 287v45h295v-45h-295zM0 342v43h295v-43h-295zM0 397v41h295v-41h-295zM0 451v41h295v-41h-295zM0 504v41h295v-41h-295zM0 557v41h295v-41h-295zM0 610v39h295v-39h-295zM0 668v34h295v-34h-295zM0 721v35h295v-35h-295zM0 774v35h295 v-35h-295zM0 827v35h295v-35h-295zM0 881v32h295v-32h-295zM0 938v29h295v-29h-295zM0 991v29h295v-29h-295zM0 1044v29h295v-29h-295zM0 1098v30h295v-30h-295zM0 1151v31h295v-31h-295zM0 1204v2v25h295v-27h-295zM2 1262q0 16 2 22h291v-22h-293zM6 1315q2 6 2 12t2 12 h305q-16 -10 -18 -24h-291zM16 1368l7 25h733l6 -25h-746zM31 1421q2 6 4 12.5t4 12.5h698q4 -8 8 -25h-714zM53 1475q8 16 15 24h643l12 -24h-670zM88 1528q4 6 9 11t9 11h564q4 -6 9 -11t9 -11h-600zM150 1585l30 19h418q8 -4 15.5 -9.5t13.5 -9.5h-477zM178 -520h150v-17 q0 -23 14 -32t31 -9q51 0 51 50q0 53 -74 53h-20v82h98v-45q76 0 114 -21.5t38 -75.5q0 -41 -15.5 -65.5t-43 -36.5t-65.5 -16t-83 -4q-84 0 -139.5 23.5t-55.5 92.5v21zM289 1634q14 2 27.5 3t27.5 1h88q14 0 27.5 -1t29.5 -3h-200zM463 1339h303q4 -16 4 -24h-291 q-2 14 -16 24zM481 18v48h295v-43v-5h-295zM481 72v49h295v-49h-295zM481 125v49h295v-49h-295zM481 180v19v28h295v-28v-19h-295zM481 233v3h39h219h37v-3h-295zM481 842v20h295v-20h-37h-219h-39zM481 881v32h295v-32h-295zM481 938v29h295v-29h-295zM481 991v29h295v-29 h-295zM481 1044v29h295v-29h-295zM481 1098v30h295v-30h-295zM481 1151v31h295v-31h-295zM481 1204v27h295v-25v-2h-295zM481 1262v22h293q0 -14 2 -22h-295z" />
<glyph unicode="&#xc8;" horiz-adv-x="802" d="M0 12h295v-127h393h12v-37v-219v-39h-12h-649h-39v39v383zM0 18v48h295v-48h-295zM0 72v49h295v-49h-295zM0 125v49h295v-49h-295zM0 180v47h295v-47h-295zM0 233v48h295v-48h-295zM0 287v45h295v-45h-295zM0 342v43h295v-43h-295zM0 397v41h295v-41h-295zM0 451v41h295 v-41h-295zM0 504v41h295v-41h-295zM0 557v41h295v-41h-295zM0 610v39h676v-26h-39h-342v-13h-295zM0 668v34h676v-34h-676zM0 721v35h676v-35h-676zM0 774v35h676v-35h-676zM0 827v35h676v-35h-676zM0 881v32h676v-28v-4h-676zM0 938v29h295v-29h-295zM0 991v29h295v-29 h-295zM0 1044v29h295v-29h-295zM0 1098v30h295v-30h-295zM0 1151v31h295v-31h-295zM0 1204v27h295v-27h-295zM0 1262v22h295v-22h-295zM0 1315v24h295v-24h-295zM0 1368v25h700v-13v-12h-700zM0 1421v25h700v-25h-700zM0 1475v24h700v-24h-700zM0 1528v22h700v-22h-700z M0 1585v14v5h700v-5v-14h-700zM0 1634v4h39h649h12v-4h-700zM92 2009h254l160 -262h-174z" />
<glyph unicode="&#xc9;" horiz-adv-x="802" d="M0 12v-383v-39h39h649h12v39v219v37h-12h-393v127h-295zM0 18h295v48h-295v-48zM0 72h295v49h-295v-49zM0 125h295v49h-295v-49zM0 180h295v47h-295v-47zM0 233h295v48h-295v-48zM0 287h295v45h-295v-45zM0 342h295v43h-295v-43zM0 397h295v41h-295v-41zM0 451h295v41 h-295v-41zM0 504h295v41h-295v-41zM0 557h295v41h-295v-41zM0 610h295v13h342h39v26h-676v-39zM0 668h676v34h-676v-34zM0 721h676v35h-676v-35zM0 774h676v35h-676v-35zM0 827h676v35h-676v-35zM0 881h676v4v28h-676v-32zM0 938h295v29h-295v-29zM0 991h295v29h-295v-29z M0 1044h295v29h-295v-29zM0 1098h295v30h-295v-30zM0 1151h295v31h-295v-31zM0 1204h295v27h-295v-27zM0 1262h295v22h-295v-22zM0 1315h295v24h-295v-24zM0 1368h700v12v13h-700v-25zM0 1421h700v25h-700v-25zM0 1475h700v24h-700v-24zM0 1528h700v22h-700v-22zM0 1585h700 v14v5h-700v-5v-14zM0 1634h700v4h-12h-649h-39v-4zM256 1747l160 262h254l-240 -262h-174z" />
<glyph unicode="&#xca;" horiz-adv-x="802" d="M0 12v-383v-39h39h649h12v39v219v37h-12h-393v127h-295zM0 18h295v48h-295v-48zM0 72h295v49h-295v-49zM0 125h295v49h-295v-49zM0 180h295v47h-295v-47zM0 233h295v48h-295v-48zM0 287h295v45h-295v-45zM0 342h295v43h-295v-43zM0 397h295v41h-295v-41zM0 451h295v41 h-295v-41zM0 504h295v41h-295v-41zM0 557h295v41h-295v-41zM0 610h295v13h342h39v26h-676v-39zM0 668h676v34h-676v-34zM0 721h676v35h-676v-35zM0 774h676v35h-676v-35zM0 827h676v35h-676v-35zM0 881h676v4v28h-676v-32zM0 938h295v29h-295v-29zM0 991h295v29h-295v-29z M0 1044h295v29h-295v-29zM0 1098h295v30h-295v-30zM0 1151h295v31h-295v-31zM0 1204h295v27h-295v-27zM0 1262h295v22h-295v-22zM0 1315h295v24h-295v-24zM0 1368h700v12v13h-700v-25zM0 1421h700v25h-700v-25zM0 1475h700v24h-700v-24zM0 1528h700v22h-700v-22zM0 1585h700 v14v5h-700v-5v-14zM0 1634h700v4h-12h-649h-39v-4zM68 1755l200 250h221l199 -250h-211l-100 123l-98 -123h-211z" />
<glyph unicode="&#xcb;" horiz-adv-x="802" d="M0 12h295v-127h393h12v-37v-219v-39h-12h-649h-39v39v383zM0 18v48h295v-48h-295zM0 72v49h295v-49h-295zM0 125v49h295v-49h-295zM0 180v47h295v-47h-295zM0 233v48h295v-48h-295zM0 287v45h295v-45h-295zM0 342v43h295v-43h-295zM0 397v41h295v-41h-295zM0 451v41h295 v-41h-295zM0 504v41h295v-41h-295zM0 557v41h295v-41h-295zM0 610v39h676v-26h-39h-342v-13h-295zM0 668v34h676v-34h-676zM0 721v35h676v-35h-676zM0 774v35h676v-35h-676zM0 827v35h676v-35h-676zM0 881v32h676v-28v-4h-676zM0 938v29h295v-29h-295zM0 991v29h295v-29 h-295zM0 1044v29h295v-29h-295zM0 1098v30h295v-30h-295zM0 1151v31h295v-31h-295zM0 1204v27h295v-27h-295zM0 1262v22h295v-22h-295zM0 1315v24h295v-24h-295zM0 1368v25h700v-13v-12h-700zM0 1421v25h700v-25h-700zM0 1475v24h700v-24h-700zM0 1528v22h700v-22h-700z M0 1585v14v5h700v-5v-14h-700zM0 1634v4h39h649h12v-4h-700zM94 1755v27v157v27h29h149h29v-27v-157v-27h-29h-149h-29zM436 1755v27v157v27h29h149h27v-27v-157v-27h-27h-149h-29z" />
<glyph unicode="&#xcc;" d="M-174 2009h254l160 -262h-174zM0 12h295v-383v-39h-37h-219h-39v39v383zM0 18v48h295v-48h-295zM0 72v49h295v-49h-295zM0 127v47h295v-47h-295zM0 180v47h295v-47h-295zM0 233v48h295v-48h-295zM0 287v45h295v-45h-295zM0 342v43h295v-43h-295zM0 397v41h295v-41h-295z M0 451v41h295v-41h-295zM0 504v41h295v-41h-295zM0 557v41h295v-41h-295zM0 610v39h295v-39h-295zM0 668v34h295v-34h-295zM0 721v35h295v-35h-295zM0 774v35h295v-35h-295zM0 827v35h295v-35h-295zM0 881v32h295v-32h-295zM0 938v29h295v-29h-295zM0 991v29h295v-29h-295z M0 1044v29h295v-29h-295zM0 1098v30h295v-30h-295zM0 1151v31h295v-31h-295zM0 1204v27h295v-27h-295zM0 1262v22h295v-22h-295zM0 1315v24h295v-24h-295zM0 1368v25h295v-25h-295zM0 1421v25h295v-25h-295zM0 1475v24h295v-24h-295zM0 1528v22h295v-22h-295zM0 1585v14v5 h295v-5v-14h-295zM0 1634v13h39h219h37v-13h-295z" />
<glyph unicode="&#xcd;" d="M0 12v-383v-39h39h219h37v39v383h-295zM0 18h295v48h-295v-48zM0 72h295v49h-295v-49zM0 127h295v47h-295v-47zM0 180h295v47h-295v-47zM0 233h295v48h-295v-48zM0 287h295v45h-295v-45zM0 342h295v43h-295v-43zM0 397h295v41h-295v-41zM0 451h295v41h-295v-41zM0 504 h295v41h-295v-41zM0 557h295v41h-295v-41zM0 610h295v39h-295v-39zM0 668h295v34h-295v-34zM0 721h295v35h-295v-35zM0 774h295v35h-295v-35zM0 827h295v35h-295v-35zM0 881h295v32h-295v-32zM0 938h295v29h-295v-29zM0 991h295v29h-295v-29zM0 1044h295v29h-295v-29z M0 1098h295v30h-295v-30zM0 1151h295v31h-295v-31zM0 1204h295v27h-295v-27zM0 1262h295v22h-295v-22zM0 1315h295v24h-295v-24zM0 1368h295v25h-295v-25zM0 1421h295v25h-295v-25zM0 1475h295v24h-295v-24zM0 1528h295v22h-295v-22zM0 1585h295v14v5h-295v-5v-14zM0 1634 h295v13h-37h-219h-39v-13zM51 1747l160 262h254l-240 -262h-174z" />
<glyph unicode="&#xce;" d="M-178 1755l201 250h221l198 -250h-211l-100 123l-98 -123h-211zM0 12v-383v-39h39h219h37v39v383h-295zM0 18h295v48h-295v-48zM0 72h295v49h-295v-49zM0 127h295v47h-295v-47zM0 180h295v47h-295v-47zM0 233h295v48h-295v-48zM0 287h295v45h-295v-45zM0 342h295v43h-295 v-43zM0 397h295v41h-295v-41zM0 451h295v41h-295v-41zM0 504h295v41h-295v-41zM0 557h295v41h-295v-41zM0 610h295v39h-295v-39zM0 668h295v34h-295v-34zM0 721h295v35h-295v-35zM0 774h295v35h-295v-35zM0 827h295v35h-295v-35zM0 881h295v32h-295v-32zM0 938h295v29h-295 v-29zM0 991h295v29h-295v-29zM0 1044h295v29h-295v-29zM0 1098h295v30h-295v-30zM0 1151h295v31h-295v-31zM0 1204h295v27h-295v-27zM0 1262h295v22h-295v-22zM0 1315h295v24h-295v-24zM0 1368h295v25h-295v-25zM0 1421h295v25h-295v-25zM0 1475h295v24h-295v-24zM0 1528 h295v22h-295v-22zM0 1585h295v14v5h-295v-5v-14zM0 1634h295v13h-37h-219h-39v-13z" />
<glyph unicode="&#xcf;" d="M-131 1755v27v157v27h29h149h29v-27v-157v-27h-29h-149h-29zM0 12h295v-383v-39h-37h-219h-39v39v383zM0 18v48h295v-48h-295zM0 72v49h295v-49h-295zM0 127v47h295v-47h-295zM0 180v47h295v-47h-295zM0 233v48h295v-48h-295zM0 287v45h295v-45h-295zM0 342v43h295v-43 h-295zM0 397v41h295v-41h-295zM0 451v41h295v-41h-295zM0 504v41h295v-41h-295zM0 557v41h295v-41h-295zM0 610v39h295v-39h-295zM0 668v34h295v-34h-295zM0 721v35h295v-35h-295zM0 774v35h295v-35h-295zM0 827v35h295v-35h-295zM0 881v32h295v-32h-295zM0 938v29h295v-29 h-295zM0 991v29h295v-29h-295zM0 1044v29h295v-29h-295zM0 1098v30h295v-30h-295zM0 1151v31h295v-31h-295zM0 1204v27h295v-27h-295zM0 1262v22h295v-22h-295zM0 1315v24h295v-24h-295zM0 1368v25h295v-25h-295zM0 1421v25h295v-25h-295zM0 1475v24h295v-24h-295zM0 1528 v22h295v-22h-295zM0 1585v14v5h295v-5v-14h-295zM0 1634v13h39h219h37v-13h-295zM211 1755v27v157v27h29h149h27v-27v-157v-27h-27h-149h-29z" />
<glyph unicode="&#xd0;" horiz-adv-x="997" d="M-10 397v31v172v31h30h119h31h172h31h119h30v-31v-172v-31h-30h-119h-31h-172h-31h-119h-30zM102 -371v1970v39h39h439q51 0 104 -13t96 -51t71 -105.5t28 -174.5v-1360q0 -106 -28 -173.5t-71 -105.5t-96 -51.5t-104 -13.5h-439h-39v39zM397 -115l117 -2q51 0 60.5 18.5 t9.5 32.5v1360q0 14 -9.5 31.5t-60.5 17.5h-117v-1458z" />
<glyph unicode="&#xd1;" horiz-adv-x="1026" d="M0 25h299v-396v-39h-39h-221h-39v39v396zM0 31v49h299v-49h-299zM0 86v47h299v-47h-299zM0 139v49h299v-49h-299zM0 195v47h299v-47h-299zM0 248v49h299v-49h-299zM0 303v45h299v-45h-299zM0 360v41h299v-41h-299zM0 414v43h299v-43h-299zM0 469v41h299v-41h-299zM0 522 v43h299v-43h-299zM0 578v40h299v-40h-299zM0 631v39h547l8 -39h-252l-4 16v-16h-299zM0 688v37h535l8 -37h-543zM0 743v35h524l8 -35h-532zM0 797v37h512l8 -37h-520zM0 852v35h502l6 -35h-508zM0 905v33h489l9 -33h-498zM0 963v30h479l6 -30h-485zM0 1018v29h467l6 -29 h-473zM0 1071v31h457l6 -31h-463zM0 1126v29h444l7 -29h-451zM0 1180v30h432l8 -30h-440zM0 1235v27h422l6 -27h-428zM0 1292v23h412l4 -23h-416zM0 1346v24h399l7 -24h-406zM0 1401v22h389l4 -22h-393zM0 1454v25h377l4 -25h-381zM0 1509v23h365l6 -23h-371zM0 1563v20h354 l4 -20h-358zM0 1620v10v8h344l2 -18h-346zM96 1718v8q0 82 17.5 139.5t46 93.5t63.5 51t72 15q49 0 89 -19t75 -42q29 -16 55.5 -30.5t54.5 -14.5q29 0 51.5 17.5t22.5 82.5v6h178v-6q0 -72 -23.5 -128t-58 -95t-75.5 -58.5t-78 -19.5q-49 0 -87 19.5t-69 40.5 q-27 18 -51.5 31.5t-52.5 13.5q-29 0 -40.5 -21.5t-11.5 -75.5v-8h-178zM305 618h252l10 -40h-252zM317 565h252l9 -43h-250zM330 510h549v-41h-539zM344 457h535v-43h-527zM356 401h523v-41h-514zM369 348h510v-45h-500zM379 297h500v-49h-488zM393 242h486v-47h-476z M406 188h473v-49h-463zM418 133h461v-47h-451zM430 80h449v-49h-439zM442 25h437v-396v-39h-39h-269h-28l-8 29zM578 522v43h301v-43h-301zM578 578v40h301v-40h-301zM578 631v39h301v-39h-301zM578 688v37h301v-37h-301zM578 743v35h301v-35h-301zM578 797v37h301v-37h-301 zM578 852v35h301v-35h-301zM578 905v33h301v-33h-301zM578 963v30h301v-30h-301zM578 1018v29h301v-29h-301zM578 1071v31h301v-31h-301zM578 1126v29h301v-29h-301zM578 1180v30h301v-30h-301zM578 1235v27h301v-27h-301zM578 1292v23h301v-23h-301zM578 1346v24h301v-24 h-301zM578 1401v22h301v-22h-301zM578 1454v25h301v-25h-301zM578 1509v23h301v-23h-301zM578 1563v20h301v-20h-301zM578 1620v10v8h301v-8v-10h-301z" />
<glyph unicode="&#xd2;" horiz-adv-x="921" d="M-4 18h303v-84q0 -29 11.5 -40t39.5 -11h88q29 0 40 11.5t11 39.5v84h304q0 -135 -33 -221t-84 -134t-113.5 -65.5t-124.5 -17.5h-88q-61 0 -123.5 17.5t-114 65.5t-84 134t-32.5 221zM-4 25v49h303v-49h-303zM-4 80v49h303v-49h-303zM-4 135v49h303v-49h-303zM-4 190v48 h303v-48h-303zM-4 244v49h303v-49h-303zM-4 299v45h303v-45h-303zM-4 356v43h303v-43h-303zM-4 412v43h303v-43h-303zM-4 467v43h303v-43h-303zM-4 522v41h303v-41h-303zM-4 575v43h303v-43h-303zM-4 631v41h303v-41h-303zM-4 688v37h303v-37h-303zM-4 743v37h303v-37h-303z M-4 799v37h303v-37h-303zM-4 854v37h303v-37h-303zM-4 909v33h303v-33h-303zM-4 967v30h303v-30h-303zM-4 1022v29h303v-29h-303zM-4 1075v31h303v-31h-303zM-4 1130v31h303v-31h-303zM-4 1186v31h303v-31h-303zM-4 1241v27h303v-27h-303zM-2 1298q0 6 1 12.5t1 12.5h299 v-25h-301zM4 1354q0 8 4 24h772q4 -16 4 -24h-297q-8 23 -49 22h-88q-41 0 -47 -22h-299zM14 1409q4 16 6 23h748q2 -6 6 -23h-760zM29 1462q8 16 10 25h711q4 -6 5 -12.5t5 -12.5h-731zM53 1518q6 8 15 24h653q4 -6 7 -12t7 -12h-682zM90 1573l21 20h567q4 -4 10 -9t10 -11 h-608zM113 2009h254l159 -262h-174zM158 1630q8 4 16 9.5t19 9.5h403q10 -4 18.5 -9.5t16.5 -9.5h-473zM489 25v49h304v-49h-304zM489 80v49h304v-49h-304zM489 135v49h304v-49h-304zM489 190v48h304v-48h-304zM489 244v49h304v-49h-304zM489 299v45h304v-45h-304zM489 356 v43h304v-43h-304zM489 412v43h304v-43h-304zM489 467v43h304v-43h-304zM489 522v41h304v-41h-304zM489 575v43h304v-43h-304zM489 631v41h304v-41h-304zM489 688v37h304v-37h-304zM489 743v37h304v-37h-304zM489 799v37h304v-37h-304zM489 854v37h304v-37h-304zM489 909v33 h304v-33h-304zM489 967v30h304v-30h-304zM489 1022v29h304v-29h-304zM489 1075v31h304v-31h-304zM489 1130v31h304v-31h-304zM489 1186v31h304v-31h-304zM489 1241v27h304v-27h-304zM489 1298v25h299q0 -6 1.5 -12t1.5 -13h-302z" />
<glyph unicode="&#xd3;" horiz-adv-x="921" d="M-4 18q0 -135 32.5 -221t84 -134t114 -65.5t123.5 -17.5h88q61 0 124 17.5t114 65.5t84 134t33 221h-304v-84q0 -29 -11 -40t-40 -11h-88q-29 0 -40 11.5t-11 39.5v84h-303zM-4 25h303v49h-303v-49zM-4 80h303v49h-303v-49zM-4 135h303v49h-303v-49zM-4 190h303v48h-303 v-48zM-4 244h303v49h-303v-49zM-4 299h303v45h-303v-45zM-4 356h303v43h-303v-43zM-4 412h303v43h-303v-43zM-4 467h303v43h-303v-43zM-4 522h303v41h-303v-41zM-4 575h303v43h-303v-43zM-4 631h303v41h-303v-41zM-4 688h303v37h-303v-37zM-4 743h303v37h-303v-37zM-4 799 h303v37h-303v-37zM-4 854h303v37h-303v-37zM-4 909h303v33h-303v-33zM-4 967h303v30h-303v-30zM-4 1022h303v29h-303v-29zM-4 1075h303v31h-303v-31zM-4 1130h303v31h-303v-31zM-4 1186h303v31h-303v-31zM-4 1241h303v27h-303v-27zM-2 1298h301v25h-299q0 -6 -1 -12t-1 -13z M4 1354h299q6 22 47 22h88q41 0 49 -22h297q0 8 -4 24h-772q-4 -16 -4 -24zM14 1409h760q-4 17 -6 23h-748q-2 -6 -6 -23zM29 1462h731q-4 6 -5 12.5t-5 12.5h-711q-2 -8 -10 -25zM53 1518h682q-4 6 -7 12t-7 12h-653q-8 -16 -15 -24zM90 1573h608q-4 6 -10 11t-10 9h-567z M158 1630h473q-8 4 -16.5 9.5t-18.5 9.5h-403q-10 -4 -18.5 -9.5t-16.5 -9.5zM317 1747l160 262h254l-239 -262h-175zM489 25h304v49h-304v-49zM489 80h304v49h-304v-49zM489 135h304v49h-304v-49zM489 190h304v48h-304v-48zM489 244h304v49h-304v-49zM489 299h304v45h-304 v-45zM489 356h304v43h-304v-43zM489 412h304v43h-304v-43zM489 467h304v43h-304v-43zM489 522h304v41h-304v-41zM489 575h304v43h-304v-43zM489 631h304v41h-304v-41zM489 688h304v37h-304v-37zM489 743h304v37h-304v-37zM489 799h304v37h-304v-37zM489 854h304v37h-304v-37 zM489 909h304v33h-304v-33zM489 967h304v30h-304v-30zM489 1022h304v29h-304v-29zM489 1075h304v31h-304v-31zM489 1130h304v31h-304v-31zM489 1186h304v31h-304v-31zM489 1241h304v27h-304v-27zM489 1298h302q0 6 -1.5 12.5t-1.5 12.5h-299v-25z" />
<glyph unicode="&#xd4;" horiz-adv-x="921" d="M-4 18q0 -135 32.5 -221t84 -134t114 -65.5t123.5 -17.5h88q61 0 124 17.5t114 65.5t84 134t33 221h-304v-84q0 -29 -11 -40t-40 -11h-88q-29 0 -40 11.5t-11 39.5v84h-303zM-4 25h303v49h-303v-49zM-4 80h303v49h-303v-49zM-4 135h303v49h-303v-49zM-4 190h303v48h-303 v-48zM-4 244h303v49h-303v-49zM-4 299h303v45h-303v-45zM-4 356h303v43h-303v-43zM-4 412h303v43h-303v-43zM-4 467h303v43h-303v-43zM-4 522h303v41h-303v-41zM-4 575h303v43h-303v-43zM-4 631h303v41h-303v-41zM-4 688h303v37h-303v-37zM-4 743h303v37h-303v-37zM-4 799 h303v37h-303v-37zM-4 854h303v37h-303v-37zM-4 909h303v33h-303v-33zM-4 967h303v30h-303v-30zM-4 1022h303v29h-303v-29zM-4 1075h303v31h-303v-31zM-4 1130h303v31h-303v-31zM-4 1186h303v31h-303v-31zM-4 1241h303v27h-303v-27zM-2 1298h301v25h-299q0 -6 -1 -12t-1 -13z M4 1354h299q6 22 47 22h88q41 0 49 -22h297q0 8 -4 24h-772q-4 -16 -4 -24zM14 1409h760q-4 17 -6 23h-748q-2 -6 -6 -23zM29 1462h731q-4 6 -5 12.5t-5 12.5h-711q-2 -8 -10 -25zM53 1518h682q-4 6 -7 12t-7 12h-653q-8 -16 -15 -24zM88 1755l201 250h221l199 -250h-211 l-101 123l-98 -123h-211zM90 1573h608q-4 6 -10 11t-10 9h-567zM158 1630h473q-8 4 -16.5 9.5t-18.5 9.5h-403q-10 -4 -18.5 -9.5t-16.5 -9.5zM489 25h304v49h-304v-49zM489 80h304v49h-304v-49zM489 135h304v49h-304v-49zM489 190h304v48h-304v-48zM489 244h304v49h-304 v-49zM489 299h304v45h-304v-45zM489 356h304v43h-304v-43zM489 412h304v43h-304v-43zM489 467h304v43h-304v-43zM489 522h304v41h-304v-41zM489 575h304v43h-304v-43zM489 631h304v41h-304v-41zM489 688h304v37h-304v-37zM489 743h304v37h-304v-37zM489 799h304v37h-304v-37 zM489 854h304v37h-304v-37zM489 909h304v33h-304v-33zM489 967h304v30h-304v-30zM489 1022h304v29h-304v-29zM489 1075h304v31h-304v-31zM489 1130h304v31h-304v-31zM489 1186h304v31h-304v-31zM489 1241h304v27h-304v-27zM489 1298h302q0 6 -1.5 12.5t-1.5 12.5h-299v-25z " />
<glyph unicode="&#xd5;" horiz-adv-x="921" d="M-4 18h303v-84q0 -29 11.5 -40t39.5 -11h88q29 0 40 11.5t11 39.5v84h304q0 -135 -33 -221t-84 -134t-113.5 -65.5t-124.5 -17.5h-88q-61 0 -123.5 17.5t-114 65.5t-84 134t-32.5 221zM-4 25v49h303v-49h-303zM-4 80v49h303v-49h-303zM-4 135v49h303v-49h-303zM-4 190v48 h303v-48h-303zM-4 244v49h303v-49h-303zM-4 299v45h303v-45h-303zM-4 356v43h303v-43h-303zM-4 412v43h303v-43h-303zM-4 467v43h303v-43h-303zM-4 522v41h303v-41h-303zM-4 575v43h303v-43h-303zM-4 631v41h303v-41h-303zM-4 688v37h303v-37h-303zM-4 743v37h303v-37h-303z M-4 799v37h303v-37h-303zM-4 854v37h303v-37h-303zM-4 909v33h303v-33h-303zM-4 967v30h303v-30h-303zM-4 1022v29h303v-29h-303zM-4 1075v31h303v-31h-303zM-4 1130v31h303v-31h-303zM-4 1186v31h303v-31h-303zM-4 1241v27h303v-27h-303zM-2 1298q0 6 1 12.5t1 12.5h299 v-25h-301zM4 1354q0 8 4 24h772q4 -16 4 -24h-297q-8 23 -49 22h-88q-41 0 -47 -22h-299zM14 1409q4 16 6 23h748q2 -6 6 -23h-760zM29 1462q8 16 10 25h711q4 -6 5 -12.5t5 -12.5h-731zM35 1718v8q0 82 17.5 139.5t46 93.5t63.5 51t71 15q49 0 89 -19t75 -42 q29 -16 55.5 -30.5t55.5 -14.5t51.5 17.5t22.5 82.5v6h178v-6q0 -72 -23.5 -128t-58.5 -95t-76 -58.5t-78 -19.5q-49 0 -87 19.5t-68 40.5q-27 18 -51.5 31.5t-53.5 13.5t-40 -21.5t-11 -75.5v-8h-178zM53 1518q6 8 15 24h653q4 -6 7 -12t7 -12h-682zM90 1573l21 20h567 q4 -4 10 -9t10 -11h-608zM158 1630q8 4 16 9.5t19 9.5h403q10 -4 18.5 -9.5t16.5 -9.5h-473zM489 25v49h304v-49h-304zM489 80v49h304v-49h-304zM489 135v49h304v-49h-304zM489 190v48h304v-48h-304zM489 244v49h304v-49h-304zM489 299v45h304v-45h-304zM489 356v43h304v-43 h-304zM489 412v43h304v-43h-304zM489 467v43h304v-43h-304zM489 522v41h304v-41h-304zM489 575v43h304v-43h-304zM489 631v41h304v-41h-304zM489 688v37h304v-37h-304zM489 743v37h304v-37h-304zM489 799v37h304v-37h-304zM489 854v37h304v-37h-304zM489 909v33h304v-33 h-304zM489 967v30h304v-30h-304zM489 1022v29h304v-29h-304zM489 1075v31h304v-31h-304zM489 1130v31h304v-31h-304zM489 1186v31h304v-31h-304zM489 1241v27h304v-27h-304zM489 1298v25h299q0 -6 1.5 -12t1.5 -13h-302z" />
<glyph unicode="&#xd6;" horiz-adv-x="921" d="M-4 18h303v-84q0 -29 11.5 -40t39.5 -11h88q29 0 40 11.5t11 39.5v84h304q0 -135 -33 -221t-84 -134t-113.5 -65.5t-124.5 -17.5h-88q-61 0 -123.5 17.5t-114 65.5t-84 134t-32.5 221zM-4 25v49h303v-49h-303zM-4 80v49h303v-49h-303zM-4 135v49h303v-49h-303zM-4 190v48 h303v-48h-303zM-4 244v49h303v-49h-303zM-4 299v45h303v-45h-303zM-4 356v43h303v-43h-303zM-4 412v43h303v-43h-303zM-4 467v43h303v-43h-303zM-4 522v41h303v-41h-303zM-4 575v43h303v-43h-303zM-4 631v41h303v-41h-303zM-4 688v37h303v-37h-303zM-4 743v37h303v-37h-303z M-4 799v37h303v-37h-303zM-4 854v37h303v-37h-303zM-4 909v33h303v-33h-303zM-4 967v30h303v-30h-303zM-4 1022v29h303v-29h-303zM-4 1075v31h303v-31h-303zM-4 1130v31h303v-31h-303zM-4 1186v31h303v-31h-303zM-4 1241v27h303v-27h-303zM-2 1298q0 6 1 12.5t1 12.5h299 v-25h-301zM4 1354q0 8 4 24h772q4 -16 4 -24h-297q-8 23 -49 22h-88q-41 0 -47 -22h-299zM14 1409q4 16 6 23h748q2 -6 6 -23h-760zM29 1462q8 16 10 25h711q4 -6 5 -12.5t5 -12.5h-731zM53 1518q6 8 15 24h653q4 -6 7 -12t7 -12h-682zM90 1573l21 20h567q4 -4 10 -9t10 -11 h-608zM115 1755v27v157v27h28h150h29v-27v-157v-27h-29h-150h-28zM158 1630q8 4 16 9.5t19 9.5h403q10 -4 18.5 -9.5t16.5 -9.5h-473zM457 1755v27v157v27h28h150h27v-27v-157v-27h-27h-150h-28zM489 25v49h304v-49h-304zM489 80v49h304v-49h-304zM489 135v49h304v-49h-304z M489 190v48h304v-48h-304zM489 244v49h304v-49h-304zM489 299v45h304v-45h-304zM489 356v43h304v-43h-304zM489 412v43h304v-43h-304zM489 467v43h304v-43h-304zM489 522v41h304v-41h-304zM489 575v43h304v-43h-304zM489 631v41h304v-41h-304zM489 688v37h304v-37h-304z M489 743v37h304v-37h-304zM489 799v37h304v-37h-304zM489 854v37h304v-37h-304zM489 909v33h304v-33h-304zM489 967v30h304v-30h-304zM489 1022v29h304v-29h-304zM489 1075v31h304v-31h-304zM489 1130v31h304v-31h-304zM489 1186v31h304v-31h-304zM489 1241v27h304v-27h-304 zM489 1298v25h299q0 -6 1.5 -12t1.5 -13h-302z" />
<glyph unicode="&#xd7;" horiz-adv-x="1097" d="M98 233l21 21l260 260l-260 258l-21 23l21 20l123 121l20 22l23 -22l258 -258l258 258l22 22l21 -22l123 -121l20 -20l-20 -23l-260 -258l260 -260l20 -21l-20 -20l-123 -123l-21 -20l-22 20l-258 260l-258 -260l-23 -20l-20 20l-123 123z" />
<glyph unicode="&#xd8;" horiz-adv-x="944" d="M-211 -418l18 35l941 1999l14 35h35h141h35l-15 -35l-940 -1999l-18 -35h-35h-141h-35zM-4 16v1196q0 135 31.5 220.5t83 133.5t113 65.5t120.5 17.5h88q59 0 121.5 -17.5t113 -65.5t82 -133t31.5 -221v-1196q0 -135 -31.5 -220t-82 -133t-112.5 -65.5t-122 -17.5h-88 q-59 0 -120.5 17.5t-113 65.5t-83 133t-31.5 220zM295 -72q0 -29 10 -39t39 -10h88q29 0 40 10.5t11 38.5v1372q0 29 -11 39.5t-40 10.5h-88q-29 0 -39 -10.5t-10 -39.5v-1372z" />
<glyph unicode="&#xd9;" horiz-adv-x="923" d="M0 12h295v-78q0 -29 10 -39t39 -10h88q29 0 39 10.5t10 38.5v78h295q-2 -131 -33.5 -213t-81 -128t-111 -63.5t-118.5 -17.5h-88q-59 0 -119.5 17.5t-109.5 63.5t-81 128t-34 213zM0 18v5v43h295v-48h-295zM0 72v47h295v-47h-295zM0 125v47h295v-47h-295zM0 178v47h295 v-47h-295zM0 231v48h295v-48h-295zM0 285v45h295v-45h-295zM0 342v41h295v-41h-295zM0 395v41h295v-41h-295zM0 449v40h295v-40h-295zM0 502v41h295v-41h-295zM0 555v43h295v-43h-295zM0 608v39h295v-39h-295zM0 666v34h295v-34h-295zM0 719v37h295v-37h-295zM0 772v37h295 v-37h-295zM0 825v37h295v-37h-295zM0 879v32h295v-32h-295zM0 936v31h295v-31h-295zM0 989v31h295v-31h-295zM0 1042v31h295v-31h-295zM0 1096v30h295v-30h-295zM0 1151v29h295v-29h-295zM0 1204v27h295v-27h-295zM0 1260v24h295v-24h-295zM0 1313v24h295v-24h-295zM0 1366 v25h295v-25h-295zM0 1421v23h295v-23h-295zM0 1475v22h295v-22h-295zM0 1528v20h295v-20h-295zM0 1583v16v3h295v-3v-16h-295zM0 1636v2h39h219h37v-2h-295zM92 2009h254l160 -262h-174zM481 18v48h295v-43v-5h-295zM481 72v47h295v-47h-295zM481 125v47h295v-47h-295z M481 178v47h295v-47h-295zM481 231v48h295v-48h-295zM481 285v45h295v-45h-295zM481 342v41h295v-41h-295zM481 395v41h295v-41h-295zM481 449v40h295v-40h-295zM481 502v41h295v-41h-295zM481 555v43h295v-43h-295zM481 608v39h295v-39h-295zM481 666v34h295v-34h-295z M481 719v37h295v-37h-295zM481 772v37h295v-37h-295zM481 825v37h295v-37h-295zM481 879v32h295v-32h-295zM481 936v31h295v-31h-295zM481 989v31h295v-31h-295zM481 1042v31h295v-31h-295zM481 1096v30h295v-30h-295zM481 1151v29h295v-29h-295zM481 1204v27h295v-27h-295z M481 1260v24h295v-24h-295zM481 1313v24h295v-24h-295zM481 1366v25h295v-25h-295zM481 1421v23h295v-23h-295zM481 1475v22h295v-22h-295zM481 1528v20h295v-20h-295zM481 1583v16v3h295v-3v-16h-295zM481 1636v2h39h219h37v-2h-295z" />
<glyph unicode="&#xda;" horiz-adv-x="923" d="M0 12q2 -131 34 -213t81 -128t109.5 -63.5t119.5 -17.5h88q57 0 118.5 17.5t111 63.5t81 128t33.5 213h-295v-78q0 -29 -10 -39t-39 -10h-88q-29 0 -39 10.5t-10 38.5v78h-295zM0 18h295v48h-295v-43v-5zM0 72h295v47h-295v-47zM0 125h295v47h-295v-47zM0 178h295v47 h-295v-47zM0 231h295v48h-295v-48zM0 285h295v45h-295v-45zM0 342h295v41h-295v-41zM0 395h295v41h-295v-41zM0 449h295v40h-295v-40zM0 502h295v41h-295v-41zM0 555h295v43h-295v-43zM0 608h295v39h-295v-39zM0 666h295v34h-295v-34zM0 719h295v37h-295v-37zM0 772h295v37 h-295v-37zM0 825h295v37h-295v-37zM0 879h295v32h-295v-32zM0 936h295v31h-295v-31zM0 989h295v31h-295v-31zM0 1042h295v31h-295v-31zM0 1096h295v30h-295v-30zM0 1151h295v29h-295v-29zM0 1204h295v27h-295v-27zM0 1260h295v24h-295v-24zM0 1313h295v24h-295v-24zM0 1366 h295v25h-295v-25zM0 1421h295v23h-295v-23zM0 1475h295v22h-295v-22zM0 1528h295v20h-295v-20zM0 1583h295v16v3h-295v-3v-16zM0 1636h295v2h-37h-219h-39v-2zM317 1747l160 262h254l-239 -262h-175zM481 18h295v5v43h-295v-48zM481 72h295v47h-295v-47zM481 125h295v47 h-295v-47zM481 178h295v47h-295v-47zM481 231h295v48h-295v-48zM481 285h295v45h-295v-45zM481 342h295v41h-295v-41zM481 395h295v41h-295v-41zM481 449h295v40h-295v-40zM481 502h295v41h-295v-41zM481 555h295v43h-295v-43zM481 608h295v39h-295v-39zM481 666h295v34 h-295v-34zM481 719h295v37h-295v-37zM481 772h295v37h-295v-37zM481 825h295v37h-295v-37zM481 879h295v32h-295v-32zM481 936h295v31h-295v-31zM481 989h295v31h-295v-31zM481 1042h295v31h-295v-31zM481 1096h295v30h-295v-30zM481 1151h295v29h-295v-29zM481 1204h295v27 h-295v-27zM481 1260h295v24h-295v-24zM481 1313h295v24h-295v-24zM481 1366h295v25h-295v-25zM481 1421h295v23h-295v-23zM481 1475h295v22h-295v-22zM481 1528h295v20h-295v-20zM481 1583h295v16v3h-295v-3v-16zM481 1636h295v2h-37h-219h-39v-2z" />
<glyph unicode="&#xdb;" horiz-adv-x="923" d="M0 12q2 -131 34 -213t81 -128t109.5 -63.5t119.5 -17.5h88q57 0 118.5 17.5t111 63.5t81 128t33.5 213h-295v-78q0 -29 -10 -39t-39 -10h-88q-29 0 -39 10.5t-10 38.5v78h-295zM0 18h295v48h-295v-43v-5zM0 72h295v47h-295v-47zM0 125h295v47h-295v-47zM0 178h295v47 h-295v-47zM0 231h295v48h-295v-48zM0 285h295v45h-295v-45zM0 342h295v41h-295v-41zM0 395h295v41h-295v-41zM0 449h295v40h-295v-40zM0 502h295v41h-295v-41zM0 555h295v43h-295v-43zM0 608h295v39h-295v-39zM0 666h295v34h-295v-34zM0 719h295v37h-295v-37zM0 772h295v37 h-295v-37zM0 825h295v37h-295v-37zM0 879h295v32h-295v-32zM0 936h295v31h-295v-31zM0 989h295v31h-295v-31zM0 1042h295v31h-295v-31zM0 1096h295v30h-295v-30zM0 1151h295v29h-295v-29zM0 1204h295v27h-295v-27zM0 1260h295v24h-295v-24zM0 1313h295v24h-295v-24zM0 1366 h295v25h-295v-25zM0 1421h295v23h-295v-23zM0 1475h295v22h-295v-22zM0 1528h295v20h-295v-20zM0 1583h295v16v3h-295v-3v-16zM0 1636h295v2h-37h-219h-39v-2zM68 1755l200 250h221l199 -250h-211l-100 123l-98 -123h-211zM481 18h295v5v43h-295v-48zM481 72h295v47h-295 v-47zM481 125h295v47h-295v-47zM481 178h295v47h-295v-47zM481 231h295v48h-295v-48zM481 285h295v45h-295v-45zM481 342h295v41h-295v-41zM481 395h295v41h-295v-41zM481 449h295v40h-295v-40zM481 502h295v41h-295v-41zM481 555h295v43h-295v-43zM481 608h295v39h-295v-39 zM481 666h295v34h-295v-34zM481 719h295v37h-295v-37zM481 772h295v37h-295v-37zM481 825h295v37h-295v-37zM481 879h295v32h-295v-32zM481 936h295v31h-295v-31zM481 989h295v31h-295v-31zM481 1042h295v31h-295v-31zM481 1096h295v30h-295v-30zM481 1151h295v29h-295v-29z M481 1204h295v27h-295v-27zM481 1260h295v24h-295v-24zM481 1313h295v24h-295v-24zM481 1366h295v25h-295v-25zM481 1421h295v23h-295v-23zM481 1475h295v22h-295v-22zM481 1528h295v20h-295v-20zM481 1583h295v16v3h-295v-3v-16zM481 1636h295v2h-37h-219h-39v-2z" />
<glyph unicode="&#xdc;" horiz-adv-x="923" d="M0 23v1576v39h39h219h37v-39v-1665q0 -29 10 -39t39 -10h88q29 0 39 10.5t10 38.5v1665v39h39h219h37v-39v-1576q0 -133 -31.5 -218.5t-81 -132.5t-110.5 -64.5t-121 -17.5h-88q-59 0 -119.5 17.5t-111 64.5t-82 132t-31.5 219zM115 1755v27v157v27h28h150h29v-27v-157 v-27h-29h-150h-28zM457 1755v27v157v27h28h150h27v-27v-157v-27h-27h-150h-28z" />
<glyph unicode="&#xdd;" horiz-adv-x="989" d="M0 1638h309h-28h-230h-51zM10 1602l4 -13l2 -6h308l-5 19h-309zM27 1548l6 -20h305l-6 20h-305zM41 1497l6 -22h305l-6 22h-305zM57 1444l6 -23h302l-7 23h-301zM72 1391l8 -25h299l-6 25h-301zM88 1337l6 -24h299l-6 24h-299zM104 1284l7 -24h297l-7 24h-297zM119 1231 l8 -27h295l-8 27h-295zM133 1180l10 -29h293l-8 29h-295zM150 1126l8 -30h291l-9 30h-290zM166 1073l8 -31h569l9 31h-283l-6 -29l-8 29h-289zM180 1020l8 -31h543l6 31h-557zM197 967l8 -31h512l8 31h-528zM211 911l10 -32h481l9 32h-500zM227 862l11 -37h450l8 37h-469z M242 809l10 -37h422l10 37h-442zM258 756l10 -37h391l11 37h-412zM272 700l13 -34h360l10 34h-383zM289 647l12 -39h330l10 39h-352zM303 598l12 -43h303l11 43h-326zM317 1747l160 262h254l-239 -262h-175zM319 12v-385v-37h39h220h36v37v385h-295zM319 18h295v48h-295v-48 zM319 72h295v47h-295v-47zM319 125h295v47h-295v-47zM319 178h295v47h-295v-47zM319 231h295v48h-295v-48zM319 285h295v45h-295v-45zM319 342h295v41h-295v-41zM319 395h295v41h-295v-41zM319 449h295v40h-295v-40zM319 502h295v41h-295v-41zM473 1096h285l8 30h-287z M485 1151h287l8 29h-288zM496 1204h290l7 27h-291zM508 1260h293l6 24h-293zM520 1313h295l6 24h-297zM530 1366h297l7 25h-297zM543 1421h299l6 23h-299zM555 1475h301l6 22h-303zM565 1528h305l4 20h-305zM578 1583h307l2 8l2 11h-307zM590 1638h309h-49h-229h-31z" />
<glyph unicode="&#xde;" horiz-adv-x="1073" d="M0 -371v2011l307 -2l-2 -307h295q51 0 104.5 -13t96.5 -51t70.5 -105.5t27.5 -174.5v-375q0 -106 -27.5 -173.5t-70.5 -105.5t-96.5 -51.5t-104.5 -13.5h-305v-639v-39h-37h-219h-39v39zM295 563l240 -2q51 0 60 17.5t9 33.5v375q0 14 -9 31.5t-60 17.5h-240v-473z" />
<glyph unicode="&#xdf;" horiz-adv-x="894" d="M0 -371v1970v39h39h418q51 0 105 -13t97 -51t71 -105.5t28 -174.5v-313q0 -51 -21.5 -106.5t-85.5 -90.5q63 -35 85 -90t22 -106v-654q0 -106 -28 -173.5t-71 -105.5t-97 -51.5t-105 -13.5h-418h-39v39zM295 -115h119q29 0 39 10.5t10 38.5v654q0 29 -34 39t-60 10h-74 v-752zM295 918h70q35 4 66.5 19t31.5 44v313q0 29 -34 39t-60 10h-74v-425z" />
<glyph unicode="&#xe0;" horiz-adv-x="888" d="M0 -373v1612q0 129 30.5 211t79 128t107.5 63.5t117 17.5h86q57 0 116.5 -17.5t107.5 -63.5t79 -128t31 -211v-1612v-37h-37h-213h-37v37v1014h-33h-115h-32v-1014v-37h-37h-213h-37v37zM72 2009h254l159 -262h-174zM287 932h82h18h80v393q0 29 -10.5 38t-36.5 9h-86 q-29 0 -38 -9t-9 -38v-393z" />
<glyph unicode="&#xe1;" horiz-adv-x="888" d="M0 -373v-37h37h213h37v37v1014h32h115h33v-1014v-37h37h213h37v37v1612q0 129 -31 211t-79 128t-107.5 63.5t-116.5 17.5h-86q-57 0 -116.5 -17.5t-108 -63.5t-79 -128t-30.5 -211v-1612zM287 932v393q0 29 9 38t38 9h86q27 0 37 -9t10 -38v-393h-80h-18h-82zM317 1747 l160 262h254l-239 -262h-175z" />
<glyph unicode="&#xe2;" horiz-adv-x="888" d="M0 -373v-37h37h213h37v37v1014h32h115h33v-1014v-37h37h213h37v37v1612q0 129 -31 211t-79 128t-107.5 63.5t-116.5 17.5h-86q-57 0 -116.5 -17.5t-108 -63.5t-79 -128t-30.5 -211v-1612zM68 1755l200 250h221l199 -250h-211l-100 123l-98 -123h-211zM287 932v393 q0 29 9 38t38 9h86q27 0 37 -9t10 -38v-393h-80h-18h-82z" />
<glyph unicode="&#xe3;" horiz-adv-x="888" d="M0 -373v1612q0 129 30.5 211t79 128t107.5 63.5t117 17.5h86q57 0 116.5 -17.5t107.5 -63.5t79 -128t31 -211v-1612v-37h-37h-213h-37v37v1014h-33h-115h-32v-1014v-37h-37h-213h-37v37zM35 1718v8q0 82 17.5 139.5t46 93.5t63.5 51t71 15q49 0 89 -19t75 -42 q29 -16 55.5 -30.5t55.5 -14.5t51.5 17.5t22.5 82.5v6h178v-6q0 -72 -23.5 -128t-58.5 -95t-76 -58.5t-78 -19.5q-49 0 -87 19.5t-68 40.5q-27 18 -51.5 31.5t-53.5 13.5t-40 -21.5t-11 -75.5v-8h-178zM287 932h82h18h80v393q0 29 -10.5 38t-36.5 9h-86q-29 0 -38 -9t-9 -38 v-393z" />
<glyph unicode="&#xe4;" horiz-adv-x="868" d="M0 -373v1612q0 129 30.5 211t79 128t107.5 63.5t117 17.5h86q57 0 116.5 -17.5t107.5 -63.5t79 -128t31 -211v-1612v-37h-37h-213h-37v37v1014h-33h-115h-32v-1014v-37h-37h-213h-37v37zM94 1755v27v157v27h29h149h29v-27v-157v-27h-29h-149h-29zM287 932h82h18h80v393 q0 29 -10.5 38t-36.5 9h-86q-29 0 -38 -9t-9 -38v-393zM436 1755v27v157v27h29h149h27v-27v-157v-27h-27h-149h-29z" />
<glyph unicode="&#xe5;" horiz-adv-x="888" d="M0 -373v-37h37h213h37v37v1014h32h115h33v-1014v-37h37h213h37v37v1612q0 129 -31 211t-79 128t-107.5 63.5t-116.5 17.5h-86q-57 0 -116.5 -17.5t-108 -63.5t-79 -128t-30.5 -211v-1612zM233 1894q0 63 42.5 106.5t105.5 43.5t106 -43t43 -107q0 -63 -43 -106t-106 -43 t-105.5 43t-42.5 106zM287 932v393q0 29 9 38t38 9h86q27 0 37 -9t10 -38v-393h-80h-18h-82zM326 1894q0 -23 16 -39t39 -16q25 0 41 16.5t16 38.5q0 23 -16 39.5t-41 16.5q-23 0 -39 -16.5t-16 -39.5z" />
<glyph unicode="&#xe6;" horiz-adv-x="1273" d="M0 -373v1612q0 129 30.5 211t79 128t107.5 63.5t117 17.5h86q57 0 116.5 -17.5t107.5 -63.5t79 -128t31 -211v-1612v-37h-37h-213h-37v37v1014h-33h-115h-32v-1014v-37h-37h-213h-37v37zM287 932h82h18h80v393q0 29 -10.5 38t-36.5 9h-86q-29 0 -38 -9t-9 -38v-393z M471 -371v1970v56h39h649h12v-56v-219v-39h-12h-393v-417h342h39v-39v-226v-36h-39h-342v-738h393h12v-37v-219v-39h-12h-651h-37v39z" />
<glyph unicode="&#xe7;" horiz-adv-x="882" d="M-4 16v1196q0 135 31.5 220.5t83 133.5t113 65.5t120.5 17.5h88q59 0 121.5 -17.5t113 -65.5t82 -133t31.5 -221v-331v-37h-37h-221h-39v37v419q0 29 -11 39.5t-40 10.5h-88q-29 0 -39 -10.5t-10 -39.5v-1372q0 -29 10 -40t39 -11h88q29 0 40 11.5t11 39.5v267v36h39h221 h37v-36v-179q0 -135 -31.5 -220t-82 -133t-112.5 -65.5t-122 -17.5h-88q-59 0 -120.5 17.5t-113 65.5t-83 133t-31.5 220zM178 -520h150v-17q0 -23 14 -32t31 -9q51 0 51 50q0 53 -74 53h-20v82h98v-45q76 0 114 -21.5t38 -75.5q0 -41 -15.5 -65.5t-43 -36.5t-65.5 -16 t-83 -4q-84 0 -139.5 23.5t-55.5 92.5v21z" />
<glyph unicode="&#xe8;" horiz-adv-x="802" d="M0 -371v1970v39h39h649h12v-39v-219v-39h-12h-393v-417h342h39v-39v-226v-36h-39h-342v-738h393h12v-37v-219v-39h-12h-649h-39v39zM72 2009h254l159 -262h-174z" />
<glyph unicode="&#xe9;" horiz-adv-x="802" d="M0 -371v-39h39h649h12v39v219v37h-12h-393v738h342h39v36v226v39h-39h-342v417h393h12v39v219v39h-12h-649h-39v-39v-1970zM317 1747l160 262h254l-239 -262h-175z" />
<glyph unicode="&#xea;" horiz-adv-x="802" d="M0 -371v-39h39h649h12v39v219v37h-12h-393v738h342h39v36v226v39h-39h-342v417h393h12v39v219v39h-12h-649h-39v-39v-1970zM27 1755l200 250h222l198 -250h-211l-100 123l-98 -123h-211z" />
<glyph unicode="&#xeb;" horiz-adv-x="802" d="M0 -371v1970v39h39h649h12v-39v-219v-39h-12h-393v-417h342h39v-39v-226v-36h-39h-342v-738h393h12v-37v-219v-39h-12h-649h-39v39zM94 1755v27v157v27h29h149h29v-27v-157v-27h-29h-149h-29zM436 1755v27v157v27h29h149h27v-27v-157v-27h-27h-149h-29z" />
<glyph unicode="&#xec;" d="M-160 2009h254l160 -262h-174zM0 -371v1970v39h39h219h37v-39v-1970v-39h-37h-219h-39v39z" />
<glyph unicode="&#xed;" d="M0 -371v-39h39h219h37v39v1970v39h-37h-219h-39v-39v-1970zM25 1747l159 262h254l-239 -262h-174z" />
<glyph unicode="&#xee;" d="M-158 1755l201 250h221l199 -250h-211l-100 123l-99 -123h-211zM0 -371v-39h39h219h37v39v1970v39h-37h-219h-39v-39v-1970z" />
<glyph unicode="&#xef;" horiz-adv-x="495" d="M-131 1755v27v157v27h29h149h29v-27v-157v-27h-29h-149h-29zM0 -371v1970v39h39h219h37v-39v-1970v-39h-37h-219h-39v39zM211 1755v27v157v27h29h149h27v-27v-157v-27h-27h-149h-29z" />
<glyph unicode="&#xf0;" horiz-adv-x="1021" d="M0 -8v459v127v16t2 18q10 82 41 148q27 55 79 101t142 46h189q6 0 -0.5 -1t0.5 -1l28 2v508v213h295v-207h180v-278h-180v-981v-139v-31q0 -135 -31.5 -219t-81 -131.5t-110.5 -64.5t-121 -17h-67h-21h-43q-51 0 -104.5 13t-97.5 51t-71.5 105.5t-27.5 174.5v88zM295 16 v-94q0 -8 2 -19.5t11 -21.5t24.5 -17t44.5 -7q39 0 59.5 8t30.5 19.5t12 22.5t2 15v121v100v209v211q0 6 -2 17.5t-11 21.5t-25.5 17.5t-43.5 7.5q-39 0 -59.5 -8.5t-30.5 -19.5t-12 -21.5t-2 -14.5v-217v-4v-326z" />
<glyph unicode="&#xf1;" horiz-adv-x="1013" d="M0 -371v1970v39h39h262h31l6 -28l231 -1104v1093v39h39h219h37v-39v-1970v-39h-37h-264h-28l-9 29l-231 1012v-1002v-39h-37h-219h-39v39zM96 1718v8q0 82 17.5 139.5t46 93.5t63.5 51t72 15q49 0 89 -19t75 -42q29 -16 55.5 -30.5t54.5 -14.5q29 0 51.5 17.5t22.5 82.5 v6h178v-6q0 -72 -23.5 -128t-58 -95t-75.5 -58.5t-78 -19.5q-49 0 -87 19.5t-69 40.5q-27 18 -51.5 31.5t-52.5 13.5q-29 0 -40.5 -21.5t-11.5 -75.5v-8h-178z" />
<glyph unicode="&#xf2;" horiz-adv-x="909" d="M-4 16v1196q0 135 31.5 220.5t83 133.5t113 65.5t120.5 17.5h88q59 0 121.5 -17.5t113 -65.5t82 -133t31.5 -221v-1196q0 -135 -31.5 -220t-82 -133t-112.5 -65.5t-122 -17.5h-88q-59 0 -120.5 17.5t-113 65.5t-83 133t-31.5 220zM92 2009h254l160 -262h-174zM295 -72 q0 -29 10 -39t39 -10h88q29 0 40 10.5t11 38.5v1372q0 29 -11 39.5t-40 10.5h-88q-29 0 -39 -10.5t-10 -39.5v-1372z" />
<glyph unicode="&#xf3;" horiz-adv-x="909" d="M-4 16q0 -135 31.5 -220t83 -133t113 -65.5t120.5 -17.5h88q59 0 121.5 17.5t113 65.5t82 133t31.5 220v1196q0 135 -31.5 220.5t-82 133.5t-112.5 65.5t-122 17.5h-88q-59 0 -120.5 -17.5t-113 -65.5t-83 -133t-31.5 -221v-1196zM295 -72v1372q0 29 10 39.5t39 10.5h88 q29 0 40 -10.5t11 -39.5v-1372q0 -29 -11 -39t-40 -10h-88q-29 0 -39 10.5t-10 38.5zM317 1747l160 262h254l-239 -262h-175z" />
<glyph unicode="&#xf4;" horiz-adv-x="909" d="M-4 16q0 -135 31.5 -220t83 -133t113 -65.5t120.5 -17.5h88q59 0 121.5 17.5t113 65.5t82 133t31.5 220v1196q0 135 -31.5 220.5t-82 133.5t-112.5 65.5t-122 17.5h-88q-59 0 -120.5 -17.5t-113 -65.5t-83 -133t-31.5 -221v-1196zM88 1755l201 250h221l199 -250h-211 l-101 123l-98 -123h-211zM295 -72v1372q0 29 10 39.5t39 10.5h88q29 0 40 -10.5t11 -39.5v-1372q0 -29 -11 -39t-40 -10h-88q-29 0 -39 10.5t-10 38.5z" />
<glyph unicode="&#xf5;" horiz-adv-x="909" d="M-4 16v1196q0 135 31.5 220.5t83 133.5t113 65.5t120.5 17.5h88q59 0 121.5 -17.5t113 -65.5t82 -133t31.5 -221v-1196q0 -135 -31.5 -220t-82 -133t-112.5 -65.5t-122 -17.5h-88q-59 0 -120.5 17.5t-113 65.5t-83 133t-31.5 220zM35 1718v8q0 82 17.5 139.5t46 93.5 t63.5 51t71 15q49 0 89 -19t75 -42q29 -16 55.5 -30.5t55.5 -14.5t51.5 17.5t22.5 82.5v6h178v-6q0 -72 -23.5 -128t-58.5 -95t-76 -58.5t-78 -19.5q-49 0 -87 19.5t-68 40.5q-27 18 -51.5 31.5t-53.5 13.5t-40 -21.5t-11 -75.5v-8h-178zM295 -72q0 -29 10 -39t39 -10h88 q29 0 40 10.5t11 38.5v1372q0 29 -11 39.5t-40 10.5h-88q-29 0 -39 -10.5t-10 -39.5v-1372z" />
<glyph unicode="&#xf6;" horiz-adv-x="909" d="M-4 16v1196q0 135 31.5 220.5t83 133.5t113 65.5t120.5 17.5h88q59 0 121.5 -17.5t113 -65.5t82 -133t31.5 -221v-1196q0 -135 -31.5 -220t-82 -133t-112.5 -65.5t-122 -17.5h-88q-59 0 -120.5 17.5t-113 65.5t-83 133t-31.5 220zM115 1755v27v157v27h28h150h29v-27v-157 v-27h-29h-150h-28zM295 -72q0 -29 10 -39t39 -10h88q29 0 40 10.5t11 38.5v1372q0 29 -11 39.5t-40 10.5h-88q-29 0 -39 -10.5t-10 -39.5v-1372zM457 1755v27v157v27h28h150h27v-27v-157v-27h-27h-150h-28z" />
<glyph unicode="&#xf7;" horiz-adv-x="974" d="M39 426v23v139v22h24h355h22h140h22h277h24v-22v-139v-23h-24h-277v-2v2h-22h-140h-22v-2v2h-355h-24zM354 74v30v168v29h31h174h31v-29v-168v-30h-31h-174h-31zM354 766v31v168v28h31h174h31v-28v-168v-31h-31h-174h-31z" />
<glyph unicode="&#xf8;" horiz-adv-x="944" d="M-211 -418l18 35l941 1999l14 35h35h141h35l-15 -35l-940 -1999l-18 -35h-35h-141h-35zM-4 16v1196q0 135 31.5 220.5t83 133.5t113 65.5t120.5 17.5h88q59 0 121.5 -17.5t113 -65.5t82 -133t31.5 -221v-1196q0 -135 -31.5 -220t-82 -133t-112.5 -65.5t-122 -17.5h-88 q-59 0 -120.5 17.5t-113 65.5t-83 133t-31.5 220zM295 -72q0 -29 10 -39t39 -10h88q29 0 40 10.5t11 38.5v1372q0 29 -11 39.5t-40 10.5h-88q-29 0 -39 -10.5t-10 -39.5v-1372z" />
<glyph unicode="&#xf9;" horiz-adv-x="923" d="M0 23v1576v39h39h219h37v-39v-1665q0 -29 10 -39t39 -10h88q29 0 39 10.5t10 38.5v1665v39h39h219h37v-39v-1576q0 -133 -31.5 -218.5t-81 -132.5t-110.5 -64.5t-121 -17.5h-88q-59 0 -119.5 17.5t-111 64.5t-82 132t-31.5 219zM133 2009h254l160 -262h-174z" />
<glyph unicode="&#xfa;" horiz-adv-x="923" d="M0 23q0 -133 31.5 -218.5t82 -132.5t111 -64.5t119.5 -17.5h88q59 0 120.5 17.5t111 64.5t81 132t31.5 219v1576v39h-37h-219h-39v-39v-1665q0 -29 -10 -39t-39 -10h-88q-29 0 -39 10.5t-10 38.5v1665v39h-37h-219h-39v-39v-1576zM317 1747l160 262h254l-239 -262h-175z " />
<glyph unicode="&#xfb;" horiz-adv-x="923" d="M0 23q0 -135 31.5 -219.5t82 -131.5t111 -64.5t119.5 -17.5h88q59 0 120.5 17.5t111 64.5t81 131t31.5 220v1576v39h-37h-219h-39v-39v-1665q0 -29 -10 -39t-39 -10h-88q-29 0 -39 10.5t-10 38.5v1665v39h-37h-219h-39v-39v-1576zM88 1755l201 250h221l199 -250h-211 l-101 123l-98 -123h-211z" />
<glyph unicode="&#xfc;" horiz-adv-x="923" d="M0 23v1576v39h39h219h37v-39v-1665q0 -29 10 -39t39 -10h88q29 0 39 10.5t10 38.5v1665v39h39h219h37v-39v-1576q0 -133 -31.5 -218.5t-81 -132.5t-110.5 -64.5t-121 -17.5h-88q-59 0 -119.5 17.5t-111 64.5t-82 132t-31.5 219zM115 1755v27v157v27h28h150h29v-27v-157 v-27h-29h-150h-28zM457 1755v27v157v27h28h150h27v-27v-157v-27h-27h-150h-28z" />
<glyph unicode="&#xfd;" horiz-adv-x="989" d="M0 1638l14 -49l305 -1046v-914v-39h39h217h39v39v916l273 1046l12 47h-49h-229h-31l-6 -30l-121 -564l-146 566l-8 28h-28h-230h-51zM317 1747l160 262h254l-239 -262h-175z" />
<glyph unicode="&#xfe;" horiz-adv-x="870" d="M0 -371v2011l307 -2l-2 -491h172q51 0 104.5 -13.5t96.5 -51.5t70.5 -105.5t27.5 -173.5v-375q0 -106 -27.5 -174t-70.5 -105.5t-96.5 -51t-104.5 -13.5h-182v-455v-39h-37h-219h-39v39zM295 379l117 -2q51 0 60 17.5t9 33.5v375q0 14 -9 31.5t-60 17.5h-117v-473z" />
<glyph unicode="&#xff;" horiz-adv-x="989" d="M0 1638h51h230h28l8 -28l146 -566l121 564l6 30h31h229h49l-12 -47l-273 -1046v-916v-39h-39h-217h-39v39v914l-305 1046zM197 1755v27v157v27h28h150h28v-27v-157v-27h-28h-150h-28zM539 1755v27v157v27h28h150h26v-27v-157v-27h-26h-150h-28z" />
<glyph unicode="&#x152;" horiz-adv-x="1304" d="M-4 16v1196q0 135 31.5 220.5t83 133.5t113 65.5t120.5 17.5h88q59 0 121.5 -17.5t113 -65.5t82 -133t31.5 -221v-1196q0 -135 -31.5 -220t-82 -133t-112.5 -65.5t-122 -17.5h-88q-59 0 -120.5 17.5t-113 65.5t-83 133t-31.5 220zM295 -72q0 -29 10 -39t39 -10h88 q29 0 40 10.5t11 38.5v1372q0 29 -11 39.5t-40 10.5h-88q-29 0 -39 -10.5t-10 -39.5v-1372zM492 -371v1970v46l38 -3l650 3h12v-46v-219v-39h-12h-394v-417h342h39v-39v-226v-36h-39h-342v-738h394h12v-37v-219v-47h-12h-650h-38v47z" />
<glyph unicode="&#x153;" horiz-adv-x="1304" d="M-4 16v1196q0 135 31.5 220.5t83 133.5t113 65.5t120.5 17.5h88q59 0 121.5 -17.5t113 -65.5t82 -133t31.5 -221v-1196q0 -135 -31.5 -220t-82 -133t-112.5 -65.5t-122 -17.5h-88q-59 0 -120.5 17.5t-113 65.5t-83 133t-31.5 220zM295 -72q0 -29 10 -39t39 -10h88 q29 0 40 10.5t11 38.5v1372q0 29 -11 39.5t-40 10.5h-88q-29 0 -39 -10.5t-10 -39.5v-1372zM492 -371v1970v46l38 -3l650 3h12v-46v-219v-39h-12h-394v-417h342h39v-39v-226v-36h-39h-342v-738h394h12v-37v-219v-47h-12h-650h-38v47z" />
<glyph unicode="&#x178;" horiz-adv-x="989" d="M0 1638h51h230h28h-309zM10 1602h309l5 -19h-308l-2 6zM27 1548h305l6 -20h-305zM41 1497h305l6 -22h-305zM57 1444h301l7 -23h-302zM72 1391h301l6 -25h-299zM88 1337h299l6 -24h-299zM104 1284h297l7 -24h-297zM119 1231h295l8 -27h-295zM133 1180h295l8 -29h-293z M150 1126h290l9 -30h-291zM166 1073h289l8 -29l6 29h283l-9 -31h-569zM180 1020h557l-6 -31h-543zM197 967h528l-8 -31h-512zM197 1755v27v157v27h28h150h28v-27v-157v-27h-28h-150h-28zM211 911h500l-9 -32h-481zM227 862h469l-8 -37h-450zM242 809h442l-10 -37h-422z M258 756h412l-11 -37h-391zM272 700h383l-10 -34h-360zM289 647h352l-10 -39h-330zM303 598h326l-11 -43h-303zM319 12h295v-385v-37h-36h-220h-39v37v385zM319 18v48h295v-48h-295zM319 72v47h295v-47h-295zM319 125v47h295v-47h-295zM319 178v47h295v-47h-295zM319 231v48 h295v-48h-295zM319 285v45h295v-45h-295zM319 342v41h295v-41h-295zM319 395v41h295v-41h-295zM319 449v40h295v-40h-295zM319 502v41h295v-41h-295zM473 1096l6 30h287l-8 -30h-285zM485 1151l7 29h288l-8 -29h-287zM496 1204l6 27h291l-7 -27h-290zM508 1260l6 24h293 l-6 -24h-293zM520 1313l4 24h297l-6 -24h-295zM530 1366l7 25h297l-7 -25h-297zM539 1755v27v157v27h28h150h26v-27v-157v-27h-26h-150h-28zM543 1421l6 23h299l-6 -23h-299zM555 1475l4 22h303l-6 -22h-301zM565 1528l4 20h305l-4 -20h-305zM578 1583l4 19h307l-2 -11 l-2 -8h-307zM590 1638h31h229h49h-309z" />
<glyph unicode="&#x2c6;" horiz-adv-x="886" d="M68 1755l200 250h221l199 -250h-211l-100 123l-98 -123h-211z" />
<glyph unicode="&#x2dc;" horiz-adv-x="1013" d="M96 1718v8q0 82 17.5 139.5t46 93.5t63.5 51t72 15q49 0 89 -19t75 -42q29 -16 55.5 -30.5t54.5 -14.5q29 0 51.5 17.5t22.5 82.5v6h178v-6q0 -72 -23.5 -128t-58 -95t-75.5 -58.5t-78 -19.5q-49 0 -87 19.5t-69 40.5q-27 18 -51.5 31.5t-52.5 13.5q-29 0 -40.5 -21.5 t-11.5 -75.5v-8h-178z" />
<glyph unicode="&#x2000;" horiz-adv-x="1022" />
<glyph unicode="&#x2001;" horiz-adv-x="2044" />
<glyph unicode="&#x2002;" horiz-adv-x="1022" />
<glyph unicode="&#x2003;" horiz-adv-x="2044" />
<glyph unicode="&#x2004;" horiz-adv-x="681" />
<glyph unicode="&#x2005;" horiz-adv-x="511" />
<glyph unicode="&#x2006;" horiz-adv-x="340" />
<glyph unicode="&#x2007;" horiz-adv-x="340" />
<glyph unicode="&#x2008;" horiz-adv-x="255" />
<glyph unicode="&#x2009;" horiz-adv-x="408" />
<glyph unicode="&#x200a;" horiz-adv-x="113" />
<glyph unicode="&#x2010;" horiz-adv-x="876" d="M31 397v31v172v31h30h365h31h172h30h119h31v-31v-172v-31h-31h-119h-30h-172h-31h-365h-30z" />
<glyph unicode="&#x2011;" horiz-adv-x="876" d="M31 397v31v172v31h30h365h31h172h30h119h31v-31v-172v-31h-31h-119h-30h-172h-31h-365h-30z" />
<glyph unicode="&#x2012;" horiz-adv-x="876" d="M31 397v31v172v31h30h365h31h172h30h119h31v-31v-172v-31h-31h-119h-30h-172h-31h-365h-30z" />
<glyph unicode="&#x2013;" horiz-adv-x="876" d="M31 397v31v172v31h30h365h31h172h30h119h31v-31v-172v-31h-31h-119h-30h-172h-31h-365h-30z" />
<glyph unicode="&#x2014;" horiz-adv-x="1128" d="M31 397v31v172v31h30h365h31h172h30h365h31v-31v-172v-31h-31h-365h-30h-172h-31h-365h-30z" />
<glyph unicode="&#x2018;" d="M-18 1081v254l129 299h120l-77 -268h137v-285h-309z" />
<glyph unicode="&#x2019;" d="M-18 1350v284h309v-256l-129 -297h-121l78 269h-137z" />
<glyph unicode="&#x201a;" horiz-adv-x="309" d="M-6 6v43h237v-45l-34 -391h-170z" />
<glyph unicode="&#x201c;" horiz-adv-x="679" d="M-6 1108v229l117 269h108l-69 -242h122v-256h-278zM303 1108v229l117 269h108l-69 -242h123v-256h-279z" />
<glyph unicode="&#x201d;" horiz-adv-x="679" d="M-6 1350v256h278v-230l-116 -268h-109l70 242h-123zM303 1350v256h279v-230l-117 -268h-109l70 242h-123z" />
<glyph unicode="&#x201e;" horiz-adv-x="614" d="M-6 6v43h237v-45l-34 -391h-170zM283 0v-23v72h237v-45l-35 -391h-170z" />
<glyph unicode="&#x2022;" horiz-adv-x="522" d="M-16 485l32 33l185 187l32 32l33 -32l176 -179l33 -30l-33 -33l-184 -187l-33 -32l-32 32l-177 179z" />
<glyph unicode="&#x2026;" horiz-adv-x="1284" d="M0 -125h39h219h37v-39v-207v-39h-37h-219h-39v39v207v39zM453 -125h39h219h37v-39v-207v-39h-37h-219h-39v39v207v39zM901 -125h37h219h39v-39v-207v-39h-39h-219h-37v39v207v39z" />
<glyph unicode="&#x202f;" horiz-adv-x="408" />
<glyph unicode="&#x2039;" horiz-adv-x="440" d="M10 492l336 229l-6 -477z" />
<glyph unicode="&#x203a;" horiz-adv-x="440" d="M10 721l336 -229l-330 -248z" />
<glyph unicode="&#x205f;" horiz-adv-x="511" />
<glyph unicode="&#x20ac;" horiz-adv-x="970" d="M-27 627v30v234v29h31h367h28h172h31h121h29v-29v-234v-30h-29h-121h-31h-172h-28h-367h-31zM164 -371v1970v39h39h649h12v-39v-219v-39h-12h-393v-739v-717h393h12v-37v-219v-39h-12h-649h-39v39z" />
<glyph unicode="&#x2122;" horiz-adv-x="348" d="M-59 1587v6v33v6h6h112h4v-6v-33v-6h-4h-34v-256v-6h-7h-32h-6v6v256h-33h-6zM86 1325v6v295v6h4h45h8v-4l31 -172l29 172l2 4h10h41h4v-6v-295v-6h-4h-33h-6v6v154l-22 -156v-4h-5h-32h-6v4l-23 156v-154v-6h-4h-35h-4z" />
<glyph unicode="&#x25fc;" horiz-adv-x="1638" d="M0 0v1638h1638v-1638h-1638z" />
<glyph unicode="&#xfb01;" horiz-adv-x="1075" d="M0 -381v1970v39h39l975 -2v-37v-219v-39h-27h-692v-420h285h38v-37v-225v-37h-38h-285v-993v-39h-39h-217h-39v39zM719 -381v1559v39h37h219h39v-39v-1559v-39h-39h-219h-37v39z" />
<glyph unicode="&#xfb02;" horiz-adv-x="1380" d="M0 -381v1970v39h39l975 -2v-37v-219v-39h-27h-692v-420h285h38v-37v-225v-37h-38h-285v-993v-39h-39h-217h-39v39zM719 -381v1559v39h37h219h39v-39l6 -1297l315 2v-303h-579h-37v39z" />
</font>
</defs>
</svg>
